<?xml version="1.0" encoding="UTF-8"?>
<svg version="1.1" viewBox="0 0 100.00013 100.00013" xmlns="http://www.w3.org/2000/svg" xmlns:cc="http://creativecommons.org/ns#" xmlns:dc="http://purl.org/dc/elements/1.1/" xmlns:rdf="http://www.w3.org/1999/02/22-rdf-syntax-ns#">
 <g class="coin" transform="translate(84.667 -321.08)" fill-rule="evenodd">
  <path transform="matrix(.26458 0 0 .26458 -110.78 43.402)" d="m287.68 1077.8a160.63 160.63 0 0 0 -160.63 160.63 160.63 160.63 0 0 0 160.63 160.63 160.63 160.63 0 0 0 160.63 -160.63 160.63 160.63 0 0 0 -160.63 -160.63zm0.16992 36c0.059 0.068 16.481 27.461 36.494 60.873 20.013 33.412 36.682 61.209 37.045 61.77 0.62922 0.973-1.024 2.008-36.549 22.875-20.465 12.021-37.278 21.855-37.363 21.854-0.0851 0-16.692-9.8938-36.904-21.982-22.307-13.341-36.729-22.257-36.691-22.686 0.0579-0.6906 73.757-122.95 73.969-122.7zm-73.545 146.5c0.0538-0.068 16.504 9.4535 36.555 21.16 35.25 20.58 36.497 21.263 37.709 20.564 38.557-22.217 72.116-41.395 72.213-41.268 0.17972 0.2369-73.171 102.14-73.641 102.3-0.21256 0.075-16.71-22.988-36.66-51.25-19.95-28.262-36.229-51.442-36.176-51.51z"/>
  <path d="m-50.112 323.53a50 50 0 0 0 -32.11 63 50 50 0 0 0 63 32.11 50 50 0 0 0 32.11 -63 50 50 0 0 0 -63 -32.11zm1.5444 4.7552a45 45 0 0 1 56.7 28.899 45 45 0 0 1 -28.899 56.7 45 45 0 0 1 -56.7 -28.899 45 45 0 0 1 28.899 -56.7z" stroke-width=".34201"/>
 </g>
</svg>
