<?xml version="1.0" encoding="UTF-8"?>
<svg width="133.19mm" height="133.19mm" version="1.1" viewBox="0 0 133.1878 133.18781" xmlns="http://www.w3.org/2000/svg" xmlns:cc="http://creativecommons.org/ns#" xmlns:dc="http://purl.org/dc/elements/1.1/" xmlns:rdf="http://www.w3.org/1999/02/22-rdf-syntax-ns#">
 <text x="-98.6707" y="12.084236" fill="#000000" font-family="Tahoma" font-size="17.639px" letter-spacing="0px" stroke-width=".26458" word-spacing="0px" style="line-height:1.25" xml:space="preserve"><tspan x="-98.6707" y="28.176735" font-family="Tahoma" stroke-width=".26458"/></text>
 <text x="15.00499" y="64.17659" fill="#ececec" font-family="sans-serif" font-size="17.639px" letter-spacing="0px" stroke-width=".26458" word-spacing="0px" style="line-height:1.25" xml:space="preserve"><tspan x="15.00499" y="79.782867" fill="#ececec" font-family="Tahoma" font-size="14.111px" stroke-width=".26458"/></text>
 <g transform="translate(-4.9336e-6 -16.812)">
  <rect x="4.9336e-6" y="16.812" width="133.19" height="133.19" rx="1.5633" ry="2.0974" fill="none"/>
  <path d="m1.8289 34.804c-1.0131 0-1.8288 0.94512-1.8288 2.1193v25.761c0 1.1741 0.81568 2.1198 1.8288 2.1198h26.343c1.0132 0 1.8288-0.94564 1.8288-2.1198v-25.761c0-1.1741-0.81567-2.1193-1.8288-2.1193zm34.396 0c-1.0132 0-1.8288 0.94512-1.8288 2.1193v25.761c0 1.1741 0.81568 2.1198 1.8288 2.1198h26.343c1.0132 0 1.8288-0.94564 1.8288-2.1198v-25.761c0-1.1741-0.81567-2.1193-1.8288-2.1193zm34.396 0c-1.0132 0-1.8288 0.94512-1.8288 2.1193v25.761c0 1.1741 0.81567 2.1198 1.8288 2.1198h26.343c1.0132 0 1.8288-0.94564 1.8288-2.1198v-25.761c0-1.1741-0.81567-2.1193-1.8288-2.1193zm34.396 0c-1.0132 0-1.8288 0.94512-1.8288 2.1193v25.761c0 1.1741 0.81567 2.1198 1.8288 2.1198h26.343c1.0132 0 1.8288-0.94564 1.8288-2.1198v-25.761c0-1.1741-0.81567-2.1193-1.8288-2.1193zm13.055 10.993c0.34795 0 0.65112 0.03617 0.9095 0.10852 0.26183 0.0689 0.49782 0.17742 0.70797 0.32556 0.22738 0.16536 0.39791 0.36518 0.5116 0.59945 0.11713 0.23427 0.1757 0.50815 0.1757 0.82166 0 0.42375-0.13953 0.79582-0.41858 1.1162-0.27905 0.32039-0.61323 0.52365-1.0025 0.60978v0.07234c0.16192 0.03101 0.33418 0.08441 0.51677 0.1602 0.18603 0.07579 0.35829 0.18776 0.51676 0.3359 0.15848 0.14814 0.28767 0.33934 0.38758 0.57361 0.0999 0.23082 0.14986 0.51332 0.14986 0.8475 0 0.34795-0.0603 0.66835-0.18087 0.96118-0.11713 0.28939-0.28422 0.54605-0.50126 0.76998-0.22393 0.23426-0.49437 0.41169-0.81132 0.53226-0.31695 0.12058-0.67696 0.18087-1.08 0.18087-0.38585 0-0.76825-0.04651-1.1472-0.13953-0.37896-0.09302-0.69763-0.20498-0.95601-0.3359v-1.0904h0.0724c0.21704 0.15848 0.50815 0.31006 0.87333 0.45475 0.36518 0.14469 0.73036 0.21704 1.0955 0.21704 0.21015 0 0.4203-0.03273 0.63045-0.09818 0.2136-0.0689 0.39102-0.17915 0.53227-0.33073 0.1378-0.15158 0.24288-0.31867 0.31523-0.50126 0.0723-0.18259 0.10852-0.41341 0.10852-0.69246s-0.0413-0.50815-0.12403-0.6873c-0.0792-0.17914-0.1912-0.32039-0.33589-0.42375-0.1447-0.10335-0.31695-0.17398-0.51677-0.21187-0.19637-0.04134-0.40996-0.06201-0.64079-0.06201h-0.43925v-0.85783h0.34107c0.46509 0 0.84233-0.11024 1.1317-0.33073 0.29284-0.22049 0.43925-0.54088 0.43925-0.96118 0-0.19292-0.0379-0.35829-0.11368-0.49609-0.0758-0.14125-0.17226-0.25321-0.28939-0.3359-0.13092-0.08957-0.27561-0.15158-0.43409-0.18603-0.15847-0.03445-0.32728-0.05168-0.50642-0.05168-0.18604 0-0.37207 0.02238-0.55811 0.06718-0.18604 0.04479-0.36862 0.10335-0.54777 0.1757-0.16537 0.0689-0.31006 0.14125-0.43408 0.21704-0.12058 0.07579-0.2291 0.14642-0.32556 0.21187h-0.062v-1.0904c0.22394-0.12058 0.5271-0.2291 0.90951-0.32556 0.38585-0.09991 0.75275-0.14986 1.1007-0.14986zm-103.07 0.0026c0.8475 0 1.4693 0.33245 1.8655 0.99736s0.59428 1.6657 0.59428 3.0024c0 1.3815-0.20154 2.3961-0.60461 3.0437-0.39964 0.64423-1.018 0.96635-1.8552 0.96635-0.84749 0-1.4693-0.32901-1.8655-0.98702-0.39618-0.65801-0.59428-1.6623-0.59428-3.0127 0-1.3884 0.19982-2.403 0.59945-3.0437 0.40308-0.64423 1.0232-0.96635 1.8604-0.96635zm68.551 0.07751c0.71658 0 1.2781 0.1912 1.6846 0.57361 0.40652 0.37896 0.60978 0.894 0.60978 1.5451 0 0.29972-0.0362 0.57705-0.10852 0.83199-0.0689 0.25494-0.16536 0.49093-0.28939 0.70797-0.12746 0.22393-0.28077 0.44614-0.45992 0.66663-0.17914 0.22048-0.36862 0.43753-0.56844 0.65112-0.32384 0.3514-0.68557 0.71658-1.0852 1.0955-0.39619 0.37896-0.71314 0.67869-0.95085 0.89917h3.7827v0.88367h-4.7491v-1.08c0.34107-0.32384 0.66318-0.6339 0.96635-0.93017 0.30317-0.29628 0.59945-0.60462 0.88884-0.92501 0.58566-0.64423 0.98529-1.1593 1.1989-1.5451 0.21359-0.3893 0.32039-0.79065 0.32039-1.2041 0-0.2136-0.0344-0.40135-0.10335-0.56327-0.0655-0.16192-0.15675-0.29628-0.27388-0.40307-0.12058-0.10335-0.26011-0.18087-0.41858-0.23254-0.15848-0.05174-0.33245-0.07758-0.52194-0.07758-0.18258 0-0.36862 0.0241-0.5581 0.07235-0.18604 0.04479-0.36518 0.10163-0.53743 0.17053-0.1447 0.05857-0.28423 0.12919-0.41858 0.21187-0.13436 0.08268-0.24288 0.15331-0.32557 0.21187h-0.0568v-1.0955c0.2136-0.1068 0.50988-0.21015 0.88884-0.31006 0.38241-0.10335 0.74414-0.15503 1.0852-0.15503zm-34.445 0.06712h0.80099v6.935h1.3643v0.78548h-3.7517v-0.78548h1.3953v-5.1573h-1.3953v-0.7028c0.5271 0 0.91467-0.07407 1.1627-0.22221 0.25149-0.15158 0.39274-0.43581 0.42374-0.85266zm-34.106 0.70797c-0.28594 0-0.52193 0.0689-0.70797 0.20671-0.18259 0.13436-0.32728 0.3359-0.43408 0.60462-0.10335 0.26183-0.17397 0.59256-0.21187 0.99219-0.0379 0.39963-0.0568 0.85094-0.0568 1.3539 0 0.53743 0.0155 0.98702 0.0465 1.3488 0.0344 0.36174 0.1068 0.68558 0.21704 0.97152 0.0999 0.26527 0.24116 0.47026 0.42375 0.61495 0.18603 0.14125 0.42719 0.21188 0.72347 0.21188 0.28594 0 0.52021-0.06718 0.7028-0.20154 0.18603-0.13781 0.33073-0.34106 0.43408-0.60978 0.0999-0.25494 0.17053-0.57705 0.21187-0.96635 0.0413-0.3893 0.062-0.84922 0.062-1.3798 0-0.5271-0.0207-0.9853-0.062-1.3746s-0.11369-0.71313-0.21704-0.97152c-0.10335-0.26182-0.24632-0.45992-0.42891-0.59428-0.17915-0.1378-0.41341-0.20671-0.7028-0.20671zm-13.171 21.754c-1.0131 0-1.8288 0.94513-1.8288 2.1193v25.761c0 1.1741 0.81568 2.1198 1.8288 2.1198h26.343c1.0132 0 1.8288-0.94564 1.8288-2.1198v-25.761c0-1.1741-0.81567-2.1193-1.8288-2.1193zm34.396 0c-1.0132 0-1.8288 0.94513-1.8288 2.1193v25.761c0 1.1741 0.81568 2.1198 1.8288 2.1198h26.343c1.0132 0 1.8288-0.94564 1.8288-2.1198v-25.761c0-1.1741-0.81567-2.1193-1.8288-2.1193zm34.396 0c-1.0132 0-1.8288 0.94513-1.8288 2.1193v25.761c0 1.1741 0.81567 2.1198 1.8288 2.1198h26.343c1.0132 0 1.8288-0.94564 1.8288-2.1198v-25.761c0-1.1741-0.81567-2.1193-1.8288-2.1193zm34.396 0c-1.0132 0-1.8288 0.94513-1.8288 2.1193v25.761c0 1.1741 0.81567 2.1198 1.8288 2.1198h26.343c1.0132 0 1.8288-0.94564 1.8288-2.1198v-25.761c0-1.1741-0.81567-2.1193-1.8288-2.1193zm-20.269 11c0.17225 0 0.33245 0.0086 0.48059 0.02582s0.27905 0.04479 0.39274 0.08268v0.98702h-0.0465c-0.093-0.05168-0.22737-0.09818-0.40307-0.13953-0.1757-0.04479-0.36346-0.06718-0.56328-0.06718-0.64078 0-1.1593 0.21704-1.5555 0.65112-0.39274 0.43064-0.62528 1.0714-0.69763 1.9224 0.2446-0.17225 0.4961-0.30489 0.75448-0.39791 0.25838-0.09302 0.54088-0.13953 0.84749-0.13953 0.29972 0 0.56155 0.03101 0.78548 0.09302 0.22738 0.05857 0.46337 0.17914 0.70797 0.36173 0.2825 0.2136 0.49265 0.48404 0.63045 0.81132 0.13781 0.32728 0.20671 0.71141 0.20671 1.1524 0 0.39618-0.0655 0.76136-0.19637 1.0955-0.13092 0.33417-0.30662 0.61323-0.5271 0.83716-0.23082 0.23771-0.48921 0.41858-0.77515 0.5426-0.28594 0.12058-0.60117 0.18087-0.94568 0.18087-0.34795 0-0.6649-0.05857-0.95084-0.1757-0.2825-0.11713-0.53227-0.29111-0.74931-0.52193-0.26527-0.27905-0.4737-0.65112-0.62529-1.1162-0.14814-0.46853-0.22221-1.0439-0.22221-1.726 0-0.66835 0.0689-1.2712 0.20671-1.8087 0.1378-0.54088 0.34968-1.0111 0.63562-1.4108 0.27905-0.3893 0.63907-0.69246 1.08-0.9095 0.44097-0.22049 0.95084-0.33073 1.5296-0.33073zm-37.328 0.07234h4.222v0.90434h-3.2246v2.0464c0.12403-0.01378 0.24633-0.0241 0.36691-0.03101 0.12058-0.0069 0.23082-0.01035 0.33073-0.01035 0.39274 0 0.72519 0.03273 0.99735 0.09818 0.27216 0.06546 0.53399 0.19293 0.78548 0.3824 0.25494 0.19293 0.44959 0.43408 0.58395 0.72347 0.1378 0.28939 0.2067 0.66663 0.2067 1.1317 0 0.37207-0.0603 0.71658-0.18086 1.0335-0.11714 0.31695-0.2825 0.59084-0.4961 0.82166-0.21704 0.23427-0.48748 0.41858-0.81132 0.55294-0.32039 0.13436-0.6804 0.20154-1.08 0.20154-0.36862 0-0.73208-0.04134-1.0904-0.12402-0.35484-0.07924-0.66318-0.18431-0.92501-0.31522v-1.0904h0.0724c0.0792 0.05857 0.19293 0.12575 0.34107 0.20154 0.14814 0.07235 0.31178 0.14125 0.49092 0.2067 0.20326 0.07235 0.3893 0.12919 0.55811 0.17053 0.16881 0.0379 0.35829 0.05685 0.56844 0.05685 0.20671 0 0.40824-0.03617 0.60461-0.10852 0.19637-0.07579 0.36518-0.19637 0.50643-0.36174 0.12747-0.15158 0.22393-0.32901 0.28939-0.53227 0.0689-0.20326 0.10335-0.44269 0.10335-0.7183 0-0.27216-0.0379-0.49609-0.11369-0.67179-0.0724-0.1757-0.17914-0.3204-0.32039-0.43408-0.14814-0.13091-0.33073-0.22221-0.54777-0.27388-0.21359-0.05512-0.45303-0.08268-0.7183-0.08268-0.27905 0-0.55983 0.02238-0.84233 0.06718-0.28249 0.04134-0.50815 0.08096-0.67696 0.11886zm-31.631 0.0801h0.95084v4.222h0.91468v0.82682h-0.91468v2.6458h-0.99218v-2.6458h-3.4003v-1.0852zm99.958 0h4.8834v1.1524l-3.328 6.5422h-1.1007l3.5243-6.7903h-3.9791zm-99.999 1.2144-2.5942 3.0076h2.5942zm67.983 2.4055c-0.24115 0-0.47542 0.03617-0.7028 0.10852-0.22737 0.07235-0.4513 0.17742-0.67179 0.31523-7e-3 0.07579-0.0121 0.14986-0.0155 0.22221-3e-3 0.0689-5e-3 0.15675-5e-3 0.26355 0 0.53399 0.0517 0.96462 0.15503 1.2919 0.1068 0.32728 0.23771 0.57533 0.39274 0.74414 0.14814 0.16192 0.29973 0.27561 0.45475 0.34106 0.15848 0.06546 0.32901 0.09819 0.5116 0.09819 0.41341 0 0.74759-0.14814 1.0025-0.44442 0.25838-0.29628 0.38758-0.73897 0.38758-1.3281 0-0.31695-0.0413-0.58222-0.12403-0.79582-0.0827-0.2136-0.21704-0.39619-0.40307-0.54777-0.13436-0.11024-0.28767-0.18259-0.45992-0.21704-0.16881-0.03445-0.34279-0.05168-0.52193-0.05168zm-81.901 18.829c-1.0131 0-1.8288 0.94512-1.8288 2.1192v25.761c0 1.1741 0.81568 2.1198 1.8288 2.1198h26.343c1.0132 0 1.8288-0.94564 1.8288-2.1198v-25.761c0-1.1741-0.81567-2.1192-1.8288-2.1192zm34.396 0c-1.0132 0-1.8288 0.94512-1.8288 2.1192v25.761c0 1.1741 0.81568 2.1198 1.8288 2.1198h26.343c1.0132 0 1.8288-0.94564 1.8288-2.1198v-25.761c0-1.1741-0.81567-2.1192-1.8288-2.1192zm34.396 0c-1.0132 0-1.8288 0.94512-1.8288 2.1192v25.761c0 1.1741 0.81567 2.1198 1.8288 2.1198h26.343c1.0132 0 1.8288-0.94564 1.8288-2.1198v-25.761c0-1.1741-0.81567-2.1192-1.8288-2.1192zm34.396 0c-1.0132 0-1.8288 0.94512-1.8288 2.1192v25.761c0 1.1741 0.81567 2.1198 1.8288 2.1198h26.343c1.0132 0 1.8288-0.94564 1.8288-2.1198v-25.761c0-1.1741-0.81567-2.1192-1.8288-2.1192zm-90.016 10.977c0.69936 0 1.2592 0.18431 1.6795 0.55294 0.42374 0.36518 0.63562 0.83371 0.63562 1.4056 0 0.34451-0.10163 0.68556-0.3049 1.0232-0.19981 0.33762-0.4892 0.60117-0.86816 0.79065v0.031c0.44786 0.21015 0.7872 0.46508 1.018 0.76481 0.23082 0.29972 0.34623 0.68557 0.34623 1.1576 0 0.65801-0.23944 1.2092-0.7183 1.6536-0.47543 0.44441-1.0714 0.66662-1.788 0.66662-0.3824 0-0.73036-0.0568-1.0439-0.17053-0.31351-0.11369-0.5805-0.27733-0.80099-0.49093-0.21704-0.2067-0.3824-0.45131-0.49609-0.7338-0.11024-0.28594-0.16537-0.58739-0.16537-0.90434 0-0.41686 0.11025-0.79926 0.33073-1.1472 0.22394-0.3514 0.54777-0.63045 0.97152-0.83715v-0.031c-0.37896-0.22049-0.65973-0.46164-0.84232-0.72347s-0.27389-0.5891-0.27389-0.98184c0-0.57878 0.21876-1.0611 0.65629-1.4469s0.99219-0.57878 1.664-0.57878zm71.316 0.0181c0.84749 0 1.4693 0.33245 1.8655 0.99736 0.39618 0.6649 0.59428 1.6657 0.59428 3.0024 0 1.3815-0.20154 2.3961-0.60462 3.0437-0.39963 0.64423-1.018 0.96635-1.8552 0.96635-0.8475 0-1.4693-0.32901-1.8655-0.98702-0.39619-0.65802-0.59428-1.6623-0.59428-3.0127 0-1.3884 0.19982-2.4029 0.59945-3.0437 0.40307-0.64423 1.0232-0.96635 1.8604-0.96635zm-36.972 5e-3c0.35484 0 0.67523 0.0603 0.96118 0.18087 0.28939 0.11713 0.53915 0.28766 0.74931 0.51159 0.26527 0.2825 0.47025 0.65285 0.61495 1.111 0.14814 0.4582 0.22221 1.037 0.22221 1.7363 0 0.63735-0.0724 1.242-0.21705 1.8138-0.14125 0.56844-0.3514 1.0404-0.63045 1.4159-0.29628 0.39963-0.65285 0.70452-1.0697 0.91467-0.41341 0.21016-0.92501 0.31523-1.5348 0.31523-0.1378 0-0.28422-9e-3 -0.43925-0.0258-0.15503-0.0138-0.29972-0.0413-0.43408-0.0827v-0.98702h0.0517c0.0861 0.0482 0.22049 0.0947 0.40307 0.13953 0.1826 0.0448 0.36863 0.0672 0.55811 0.0672 0.67524 0 1.2058-0.22221 1.5916-0.66663 0.38585-0.44441 0.60462-1.08 0.6563-1.9069-0.27561 0.18604-0.53916 0.32212-0.79065 0.40824-0.24805 0.0861-0.51849 0.1292-0.81132 0.1292-0.28595 0-0.54605-0.031-0.78032-0.093-0.23426-0.062-0.47025-0.18259-0.70797-0.36174-0.2756-0.21015-0.48403-0.47542-0.62528-0.79581-0.14125-0.32384-0.21187-0.71314-0.21187-1.1679 0-0.39618 0.0637-0.75791 0.1912-1.0852 0.13091-0.32729 0.30834-0.60979 0.53227-0.8475 0.21359-0.22737 0.4737-0.4048 0.78031-0.53227 0.31006-0.12746 0.62356-0.1912 0.94051-0.1912zm31.05 0.12402h0.80098v6.935h1.3643v0.78548h-3.7517v-0.78548h1.3953v-5.1573h-1.3953v-0.7028c0.5271 0 0.91467-0.0741 1.1627-0.22221 0.2515-0.15158 0.39274-0.4358 0.42375-0.85266zm34.61 0.0155h0.80099v6.935h1.3642v0.78549h-3.7517v-0.78549h1.3953v-5.1573h-1.3953v-0.7028c0.5271 0 0.91467-0.0741 1.1627-0.22221 0.2515-0.15159 0.39275-0.43581 0.42375-0.85266zm5.7878 0h0.80099v6.935h1.3642v0.78549h-3.7517v-0.78549h1.3953v-5.1573h-1.3953v-0.7028c0.5271 0 0.91467-0.0741 1.1627-0.22221 0.2515-0.15159 0.39275-0.43581 0.42375-0.85266zm-105.8 0.59686c-0.37551 0-0.68385 0.10335-0.925 0.31006-0.23772 0.2067-0.35657 0.48576-0.35657 0.83716 0 0.25493 0.0603 0.47025 0.18087 0.64595 0.12402 0.17569 0.30833 0.33417 0.55293 0.47542 0.1068 0.0586 0.26872 0.13952 0.48576 0.24288 0.22049 0.10335 0.4203 0.18431 0.59945 0.24287 0.29972-0.23082 0.50298-0.46681 0.60978-0.70796 0.1068-0.24459 0.1602-0.52365 0.1602-0.83715 0-0.34451-0.11541-0.63218-0.34623-0.863-0.23083-0.23082-0.55122-0.34623-0.96119-0.34623zm34.344 0.10593c-0.42375 0-0.76137 0.15159-1.0129 0.45475-0.25149 0.30317-0.37724 0.74242-0.37724 1.3177 0 0.32384 0.0413 0.59084 0.12403 0.80099 0.0827 0.21015 0.21704 0.39102 0.40307 0.5426 0.13092 0.1068 0.27906 0.17915 0.44442 0.21704 0.16536 0.0344 0.34279 0.0517 0.53227 0.0517 0.22048 0 0.4582-0.0379 0.71313-0.11369 0.25494-0.0792 0.47715-0.18259 0.66663-0.31006 3e-3 -0.0517 7e-3 -0.11885 0.0104-0.20154 7e-3 -0.0861 0.0103-0.18087 0.0103-0.28422 0-0.52365-0.0482-0.94911-0.1447-1.2764-0.0965-0.33072-0.22909-0.58566-0.3979-0.76481-0.15159-0.16536-0.3049-0.27905-0.45993-0.34106-0.15502-0.062-0.32556-0.093-0.51159-0.093zm36.977 5e-3c-0.28594 0-0.52193 0.0689-0.70797 0.20671-0.18259 0.13435-0.32728 0.33589-0.43408 0.60461-0.10335 0.26183-0.17398 0.59256-0.21187 0.99218-0.0379 0.39963-0.0568 0.85094-0.0568 1.3539 0 0.53744 0.0155 0.98702 0.0465 1.3488 0.0344 0.36173 0.10679 0.68557 0.21704 0.97151 0.0999 0.26527 0.24115 0.47026 0.42374 0.61495 0.18604 0.14125 0.4272 0.21188 0.72347 0.21188 0.28595 0 0.52021-0.0672 0.7028-0.20154 0.18604-0.13781 0.33073-0.34107 0.43408-0.60978 0.0999-0.25494 0.17054-0.57706 0.21188-0.96635 0.0413-0.3893 0.062-0.84922 0.062-1.3798 0-0.5271-0.0207-0.98529-0.062-1.3746-0.0413-0.38928-0.11369-0.71312-0.21704-0.97151-0.10336-0.26182-0.24633-0.45992-0.42892-0.59427-0.17914-0.13781-0.41341-0.20671-0.7028-0.20671zm-71.9 3.1497c-0.28595 0.18948-0.50471 0.42375-0.65629 0.7028-0.15159 0.27561-0.22738 0.59083-0.22738 0.94568 0 0.46509 0.13953 0.84921 0.41858 1.1524 0.2825 0.30317 0.63562 0.45476 1.0594 0.45476 0.43408 0 0.78203-0.1292 1.0439-0.38758 0.26183-0.26183 0.39274-0.61667 0.39274-1.0645 0-0.31695-0.062-0.56844-0.18603-0.75448-0.12403-0.18603-0.36346-0.37551-0.71831-0.56844-0.11713-0.0655-0.27388-0.13608-0.47025-0.21187-0.19293-0.0758-0.41169-0.16537-0.65629-0.26872z" fill="#3a99d8"/>
 </g>
</svg>
