<?xml version="1.0" encoding="UTF-8"?>
<svg version="1.1" viewBox="0 0 100.00013 100.00013" xmlns="http://www.w3.org/2000/svg" xmlns:cc="http://creativecommons.org/ns#" xmlns:dc="http://purl.org/dc/elements/1.1/" xmlns:rdf="http://www.w3.org/1999/02/22-rdf-syntax-ns#">
 <g class="coin" transform="translate(-56 -321.08)" fill-rule="evenodd">
  <path d="m90.555 323.53a50 50 0 0 0 -32.11 63 50 50 0 0 0 63 32.11 50 50 0 0 0 32.11 -63 50 50 0 0 0 -63 -32.11zm1.5444 4.7552a45 45 0 0 1 56.7 28.899 45 45 0 0 1 -28.899 56.7 45 45 0 0 1 -56.7 -28.899 45 45 0 0 1 28.899 -56.7z" stroke-width=".34201"/>
  <path d="m106 328.58a42.5 42.5 0 0 0 -42.5 42.5 42.5 42.5 0 0 0 42.5 42.5 42.5 42.5 0 0 0 42.5 -42.5 42.5 42.5 0 0 0 -42.5 -42.5zm-2.313 11.808h6.2818v55.298h10.848v6.0854h-29.633v-6.0854h11.116l-0.0682-20.704-0.0677-20.704-5.4901-0.0718-5.4901-0.0713v-5.2808l1.3891-9e-3c3.3941-0.0226 7.2421-1.157 8.7648-2.5843 0.97481-0.91377 1.9643-3.0084 2.1808-4.6163z" stroke-width=".25567"/>
 </g>
</svg>
