<?xml version="1.0" encoding="UTF-8"?>
<svg width="160" height="160" version="1.1" viewBox="0 0 160 160" xmlns="http://www.w3.org/2000/svg" xmlns:cc="http://creativecommons.org/ns#" xmlns:dc="http://purl.org/dc/elements/1.1/" xmlns:rdf="http://www.w3.org/1999/02/22-rdf-syntax-ns#">
 <rect width="160" height="160" fill="none" stroke-width=".20513"/>
 <path d="m148 64h-29.685c3.1725 7.3975 1.78 16.3-4.25 22.33l-34.065 34.065v11.605c0 6.6275 5.3725 12 12 12h56c6.6275 0 12-5.3725 12-12v-56c0-6.6275-5.3725-12-12-12zm-28 46c-3.3125 0-6-2.6875-6-6 0-3.315 2.6875-6 6-6 3.3125 0 6 2.685 6 6 0 3.3125-2.6875 6-6 6zm-11.592-46.675-43.733-43.732c-4.79-4.79-12.557-4.79-17.347 0l-43.735 43.732c-4.79 4.79-4.79 12.558 0 17.348l43.732 43.735c4.79 4.79 12.558 4.79 17.348 0l43.735-43.733c4.79-4.7925 4.79-12.56 0-17.35zm-84.407 14.675c-3.3125 0-6-2.6875-6-6 0-3.315 2.6875-6 6-6s6 2.685 6 6c0 3.3125-2.6875 6-6 6zm32 32c-3.3125 0-6-2.6875-6-6 0-3.315 2.6875-6 6-6s6 2.685 6 6c0 3.3125-2.6875 6-6 6zm0-32c-3.3125 0-6-2.6875-6-6 0-3.315 2.6875-6 6-6s6 2.685 6 6c0 3.3125-2.6875 6-6 6zm0-32c-3.3125 0-6-2.6875-6-6 0-3.315 2.6875-6 6-6s6 2.685 6 6c0 3.3125-2.6875 6-6 6zm32 32c-3.3125 0-6-2.6875-6-6 0-3.315 2.6875-6 6-6s6 2.685 6 6c0 3.3125-2.6875 6-6 6z" fill="#3a99d8" stroke-width=".25"/>
</svg>
