<?xml version="1.0" encoding="UTF-8"?>
<svg width="160mm" height="160mm" version="1.1" viewBox="0 0 160 160" xmlns="http://www.w3.org/2000/svg" xmlns:cc="http://creativecommons.org/ns#" xmlns:dc="http://purl.org/dc/elements/1.1/" xmlns:rdf="http://www.w3.org/1999/02/22-rdf-syntax-ns#">
 <g transform="translate(-199.1 -519.52)">
  <g>
   <rect x="199.1" y="519.52" width="160" height="160" fill="none" stroke-width=".37627"/>
   <g fill="#3498db" fill-rule="evenodd" stroke-width=".46656">
    <path d="m274.72 555.78c-1.721-4.1548-6.4512-6.1142-10.606-4.3932l-59.998 24.852c-4.1548 1.721-6.1142 6.4512-4.3932 10.606l24.852 59.997c1.721 4.1548 6.4514 6.1145 10.606 4.3936l59.998-24.852c4.1548-1.721 6.114-6.4516 4.393-10.606zm-3.6244 8.7502a8.1176 8.1176 0 0 1 -4.3932 10.606 8.1176 8.1176 0 0 1 -10.606 -4.3932 8.1176 8.1176 0 0 1 4.393 -10.606 8.1176 8.1176 0 0 1 10.606 4.3936zm19.726 47.623a8.1176 8.1176 0 0 1 -4.3932 10.606 8.1176 8.1176 0 0 1 -10.606 -4.3932 8.1176 8.1176 0 0 1 4.3932 -10.606 8.1176 8.1176 0 0 1 10.606 4.3932zm-33.674-13.948a8.1176 8.1176 0 0 1 -4.3932 10.606 8.1176 8.1176 0 0 1 -10.606 -4.3932 8.1176 8.1176 0 0 1 4.3932 -10.606 8.1176 8.1176 0 0 1 10.606 4.3932zm-33.674-13.948a8.1176 8.1176 0 0 1 -4.3932 10.606 8.1176 8.1176 0 0 1 -10.606 -4.3932 8.1176 8.1176 0 0 1 4.393 -10.606 8.1176 8.1176 0 0 1 10.606 4.3936zm19.726 47.623a8.1176 8.1176 0 0 1 -4.3932 10.606 8.1176 8.1176 0 0 1 -10.606 -4.3932 8.1176 8.1176 0 0 1 4.3932 -10.606 8.1176 8.1176 0 0 1 10.606 4.3932z"/>
    <path d="m290.92 547.19c-3.1639 0.0197-6.1476 1.9005-7.4384 5.0166l-3.0958 7.474 23.732 57.293c1.8931 4.5703-0.26219 9.7737-4.8325 11.667l-11.093 4.5951 34.828 14.426c4.1548 1.721 8.8849-0.23807 10.606-4.3929l24.852-59.998c1.721-4.1548-0.23807-8.8849-4.3929-10.606l-59.997-24.852c-1.0387-0.43024-2.1134-0.63038-3.168-0.62378zm3.8635 8.7576a8.1176 8.1176 0 0 1 2.9284 0.61623 8.1176 8.1176 0 0 1 4.3937 10.606 8.1176 8.1176 0 0 1 -10.607 4.3933 8.1176 8.1176 0 0 1 -4.3929 -10.606 8.1176 8.1176 0 0 1 7.6775 -5.0091zm27.897 67.349a8.1176 8.1176 0 0 1 2.9284 0.6158 8.1176 8.1176 0 0 1 4.3937 10.606 8.1176 8.1176 0 0 1 -10.606 4.3929 8.1176 8.1176 0 0 1 -4.3933 -10.606 8.1176 8.1176 0 0 1 7.6775 -5.0091z"/>
   </g>
  </g>
 </g>
</svg>
