<svg xmlns="http://www.w3.org/2000/svg" version="1.1" xmlns:xlink="http://www.w3.org/1999/xlink" xmlns:svgjs="http://svgjs.dev/svgjs" width="100.00001" height="100.00001"><svg xmlns:dc="http://purl.org/dc/elements/1.1/" xmlns:cc="http://creativecommons.org/ns#" xmlns:rdf="http://www.w3.org/1999/02/22-rdf-syntax-ns#" xmlns:svg="http://www.w3.org/2000/svg" xmlns="http://www.w3.org/2000/svg" xmlns:sodipodi="http://sodipodi.sourceforge.net/DTD/sodipodi-0.dtd" xmlns:inkscape="http://www.inkscape.org/namespaces/inkscape" width="100.00001" height="100.00001" viewBox="0 0 26.458333 26.458336" version="1.1" id="SvgjsSvg1039" sodipodi:docname="logo_new_colored_back.svg" inkscape:version="0.92.3 (2405546, 2018-03-11)" inkscape:export-filename="/home/benjamin/Pictures/dicether_banner/logo_new_colored_back.svg.png" inkscape:export-xdpi="152" inkscape:export-ydpi="152">
  <defs id="SvgjsDefs1038">
    <style id="SvgjsStyle1037">.cls-1{fill:#d2d1d1;}</style>
  </defs>
  <sodipodi:namedview id="SvgjsSodipodi:namedview1036" pagecolor="#ffffff" bordercolor="#666666" borderopacity="1.0" inkscape:pageopacity="0.0" inkscape:pageshadow="2" inkscape:zoom="2.8" inkscape:cx="-18.07962" inkscape:cy="94.317651" inkscape:document-units="px" inkscape:current-layer="g3824" showgrid="false" inkscape:pagecheckerboard="true" units="px" fit-margin-top="0" fit-margin-left="0" fit-margin-right="0" fit-margin-bottom="0" inkscape:window-width="1918" inkscape:window-height="1055" inkscape:window-x="1920" inkscape:window-y="23" inkscape:window-maximized="0" inkscape:snap-bbox="true" inkscape:snap-bbox-midpoints="true" inkscape:bbox-paths="true" inkscape:bbox-nodes="true" inkscape:snap-intersection-paths="true" inkscape:snap-text-baseline="true"></sodipodi:namedview>
  <metadata id="SvgjsMetadata1035">
    <rdf:rdf>
      <cc:work rdf:about="">
        <dc:format>image/svg+xml</dc:format>
        <dc:type rdf:resource="http://purl.org/dc/dcmitype/StillImage"></dc:type>
        <dc:title></dc:title>
      </cc:work>
    </rdf:rdf>
  </metadata>
  <g inkscape:label="Layer 1" inkscape:groupmode="layer" id="SvgjsG1034" transform="translate(-62.839263,-92.033292)">
    <g id="SvgjsG1033" data-name="2" transform="matrix(1.2735,0,0,1.2735,-82.9846,2635.8811)">
      <g id="SvgjsG1032" data-name="1" style="fill:#d2d1d1">
        <g id="SvgjsG1031">
          <g id="SvgjsG1030">
            <rect style="fill:#1a2b38;fill-opacity:1;stroke-width:0.18009272" id="SvgjsRect1029" width="20.776077" height="20.776077" x="114.50637" y="-1997.5248" inkscape:export-xdpi="239.99998" inkscape:export-ydpi="239.99998"></rect>
            <g id="SvgjsG1028" transform="matrix(0.95990234,0,0,0.95991082,5.0079824,-79.662698)">
              <path id="SvgjsPath1027" d="m 125.19514,-1994.8486 c -0.1697,-0.1698 -0.44298,-0.1698 -0.61269,0 l -4.12967,4.1296 c -0.16971,0.1697 -0.16971,0.4429 0,0.6127 l 4.12967,4.1296 c 0.16971,0.1698 0.44298,0.1698 0.61269,0 l 4.12967,-4.1296 c 0.16971,-0.1698 0.16973,-0.443 0,-0.6127 z m 0.27488,0.904 a 0.83834857,0.83834857 0 0 1 -1e-5,1.1855 0.83834857,0.83834857 0 0 1 -1.18573,0 0.83834857,0.83834857 0 0 1 2.2e-4,-1.1853 0.83834857,0.83834857 0 0 1 1.18553,-2e-4 z m 2.92781,2.9276 a 0.83834857,0.83834857 0 0 1 -1e-5,1.1857 0.83834857,0.83834857 0 0 1 -1.18573,10e-5 0.83834857,0.83834857 0 0 1 2.1e-4,-1.1856 0.83834857,0.83834857 0 0 1 1.18554,-2e-4 z m -2.91612,0.011 a 0.83834857,0.83834857 0 0 1 -2e-4,1.1855 0.83834857,0.83834857 0 0 1 -1.18534,10e-5 0.83834857,0.83834857 0 0 1 -2e-4,-1.1856 0.83834857,0.83834857 0 0 1 1.18574,0 z m -2.93959,-0.011 a 0.83834857,0.83834857 0 0 1 1.9e-4,1.1854 0.83834857,0.83834857 0 0 1 -1.18573,10e-5 0.83834857,0.83834857 0 0 1 2e-4,-1.1855 0.83834857,0.83834857 0 0 1 1.18534,0 z m 2.9278,2.9278 a 0.83834857,0.83834857 0 0 1 2e-4,1.1855 0.83834857,0.83834857 0 0 1 -1.18573,0 0.83834857,0.83834857 0 0 1 2.2e-4,-1.1854 0.83834857,0.83834857 0 0 1 1.18533,-10e-5 z" inkscape:connector-curvature="0" style="fill:#20c997;fill-opacity:1;fill-rule:evenodd;stroke-width:0.19043207"></path>
              <g style="fill:#f7f7fa;fill-opacity:1" id="SvgjsG1026">
                <path id="SvgjsPath1025" d="m 129.16146,-1988.3723 1.0319,-1.0318 c 0.10719,-0.1072 0.27978,-0.1072 0.38697,0 l 4.51456,4.5145 c 0.10718,0.1072 0.10718,0.2798 0,0.387 l -1.0319,1.0319 c -0.10719,0.1072 -0.27979,0.1072 -0.38698,0 l -4.51455,-4.5146 c -0.10719,-0.1072 -0.10719,-0.2798 0,-0.387 z" inkscape:connector-curvature="0" style="fill:#f7f7fa;fill-opacity:1;fill-rule:evenodd;stroke-width:0.00752433"></path>
                <path id="SvgjsPath1024" d="m 130.58034,-1989.4041 1.0319,1.0318 c 0.10719,0.1073 0.10719,0.2799 0,0.3871 l -4.51456,4.5146 c -0.10719,0.1072 -0.27978,0.1072 -0.38697,0 l -1.0319,-1.0319 c -0.10719,-0.1072 -0.10719,-0.2798 0,-0.387 l 4.51456,-4.5146 c 0.10718,-0.1072 0.27977,-0.1072 0.38696,0 z" inkscape:connector-curvature="0" style="fill:#f7f7fa;fill-opacity:1;fill-rule:evenodd;stroke-width:0.00752433"></path>
                <g style="fill:#f7f7fa;fill-opacity:1" id="SvgjsG1023">
                  <path id="SvgjsPath1022" d="m 118.17657,-1988.4141 1.0319,-1.0319 c 0.10718,-0.1072 0.27977,-0.1072 0.38696,0 l 4.51455,4.5145 c 0.1072,0.1072 0.1072,0.2799 0,0.3871 l -1.03189,1.0318 c -0.10719,0.1072 -0.27978,0.1072 -0.38696,0 l -4.51456,-4.5146 c -0.1072,-0.1071 -0.1072,-0.2797 0,-0.3869 z" inkscape:connector-curvature="0" style="fill:#f7f7fa;fill-opacity:1;fill-rule:evenodd;stroke-width:0.00752433"></path>
                  <path id="SvgjsPath1021" d="m 119.59543,-1989.446 1.0319,1.0319 c 0.10719,0.1072 0.10719,0.2798 0,0.3869 l -4.51456,4.5146 c -0.10719,0.1072 -0.27977,0.1072 -0.38696,0 l -1.0319,-1.0318 c -0.10718,-0.1072 -0.10718,-0.2799 0,-0.3871 l 4.51456,-4.5145 c 0.10719,-0.1072 0.27977,-0.1072 0.38696,0 z" inkscape:connector-curvature="0" style="fill:#f7f7fa;fill-opacity:1;fill-rule:evenodd;stroke-width:0.00752433"></path>
                </g>
                <path inkscape:connector-curvature="0" d="m 124.88827,-1985.1474 a 2.4995633,2.9250335 0 0 0 -2.49937,2.9248 2.4995633,2.9250335 0 0 0 2.49937,2.9251 2.4995633,2.9250335 0 0 0 2.49976,-2.9251 2.4995633,2.9250335 0 0 0 -2.49976,-2.9248 z m 0,1.8147 a 0.56573284,1.1103011 0 0 1 0.56558,1.1101 0.56573284,1.1103011 0 0 1 -0.56558,1.1104 0.56573284,1.1103011 0 0 1 -0.56559,-1.1104 0.56573284,1.1103011 0 0 1 0.56559,-1.1101 z" style="fill:#f7f7fa;fill-opacity:1;stroke-width:0.98992604;paint-order:stroke fill markers" id="SvgjsPath1020"></path>
              </g>
            </g>
          </g>
        </g>
      </g>
    </g>
  </g>
</svg><style>@media (prefers-color-scheme: light) { :root { filter: none; } }
@media (prefers-color-scheme: dark) { :root { filter: none; } }
</style></svg>