<?xml version="1.0" encoding="UTF-8"?>
<svg width="160mm" height="160mm" version="1.1" viewBox="0 0 160.00001 160" xmlns="http://www.w3.org/2000/svg" xmlns:cc="http://creativecommons.org/ns#" xmlns:dc="http://purl.org/dc/elements/1.1/" xmlns:rdf="http://www.w3.org/1999/02/22-rdf-syntax-ns#">
 <defs>
  <clipPath id="clipPath5635">
   <path d="m46.638 157.82a50 50 0 0 0 -31.891 11.545 55 55 0 0 1 15.691 38.455 55 55 0 0 1 -15.742 38.446 50 50 0 0 0 31.942 11.553 50 50 0 0 0 50 -50 50 50 0 0 0 -50 -50z" fill="#f00" fill-rule="evenodd" stroke-width=".36219"/>
  </clipPath>
 </defs>
 <g transform="translate(94.319 -168.25)">
  <g>
   <rect x="-94.319" y="168.25" width="160" height="160" fill="none" stroke-width=".24436"/>
   <g transform="translate(-5.8064 8.2324)" fill="#3498db" fill-rule="evenodd">
    <g transform="matrix(.93999 .12898 -.12898 .93999 7.4461 43.234)" clip-path="url(#clipPath5635)">
     <path d="m46.177 157.82a50 50 0 0 0 -50 50 50 50 0 0 0 50 50 50 50 0 0 0 50 -50 50 50 0 0 0 -50 -50zm0 4.9997a45 45 0 0 1 45 45 45 45 0 0 1 -45 45 45 45 0 0 1 -45 -45 45 45 0 0 1 45 -45z" stroke-width=".34201"/>
     <path d="m46.177 165.32a42.5 42.5 0 0 0 -42.5 42.5 42.5 42.5 0 0 0 42.5 42.5 42.5 42.5 0 0 0 42.5 -42.5 42.5 42.5 0 0 0 -42.5 -42.5zm-2.3141 11.632h6.4048v55.455h10.909v6.2813h-30v-6.2813h11.157v-41.24h-11.157v-5.6198c4.2149 0 7.3142-0.59206 9.2976-1.7766 2.011-1.2121 3.1405-3.4849 3.3884-6.8182z" stroke-width=".43028"/>
    </g>
    <g transform="matrix(.90239 -.29308 .29308 .90239 -47.686 26.134)">
     <path d="m-61.531 169.52a42.5 42.5 0 0 0 -42.5 42.5 42.5 42.5 0 0 0 42.5 42.5 42.5 42.5 0 0 0 42.5 -42.5 42.5 42.5 0 0 0 -42.5 -42.5zm0.0393 9.339 19.709 32.9-19.787 11.622-19.709-11.779zm-19.748 38.621 19.63 11.464 19.787-11.385-19.866 27.64z" stroke-width=".2907"/>
     <path d="m-61.531 162.02a50 50 0 0 0 -50 50 50 50 0 0 0 50 50 50 50 0 0 0 50 -50 50 50 0 0 0 -50 -50zm0 4.9997a45 45 0 0 1 45 45 45 45 0 0 1 -45 45 45 45 0 0 1 -45 -45 45 45 0 0 1 45 -45z" stroke-width=".34201"/>
    </g>
   </g>
  </g>
 </g>
</svg>
