<?xml version="1.0" encoding="UTF-8"?>
<!-- Created with Inkscape (http://www.inkscape.org/) -->
<svg width="169.66mm" height="86.822mm" version="1.1" viewBox="0 0 169.66 86.822" xmlns="http://www.w3.org/2000/svg" xmlns:cc="http://creativecommons.org/ns#" xmlns:dc="http://purl.org/dc/elements/1.1/" xmlns:rdf="http://www.w3.org/1999/02/22-rdf-syntax-ns#">
 <metadata>
  <rdf:RDF>
   <cc:Work rdf:about="">
    <dc:format>image/svg+xml</dc:format>
    <dc:type rdf:resource="http://purl.org/dc/dcmitype/StillImage"/>
    <dc:title/>
   </cc:Work>
  </rdf:RDF>
 </metadata>
 <g transform="translate(-12.827 -57.639)">
  <circle cx="121.57" cy="82.639" r="25" fill="#3498db" stroke-width=".26413"/>
  <circle cx="123.48" cy="87.566" r="17.5" fill="#fff" stroke-width=".18489"/>
  <circle cx="123.49" cy="87.397" r="16" fill="#3498db" stroke-width=".16904"/>
  <ellipse transform="rotate(-12.713)" cx="99.416" cy="92.021" rx="13.964" ry="8.4836" fill="#fff" opacity=".3" stroke-width=".11499"/>
  <circle cx="157.49" cy="119.46" r="25" fill="#3498db" stroke-width=".26413"/>
  <circle cx="154.05" cy="118.85" r="17.5" fill="#fff" stroke-width=".18489"/>
  <circle cx="154.06" cy="118.84" r="16" fill="#3498db" stroke-width=".16904"/>
  <g fill="#fff">
   <ellipse transform="matrix(.98598 -.16689 .35412 .9352 0 0)" cx="110.74" cy="131.12" rx="14.722" ry="8.7397" opacity=".3" stroke-width=".11984"/>
   <path d="m120.65 80.409 7.0817 10.716v-10.815q0-1.0542 0.44648-1.5751 0.45889-0.5333 1.2278-0.5333 0.79375 0 1.2526 0.5333 0.45889 0.5209 0.45889 1.5751v14.3q0 2.3937-1.9844 2.3937-0.49609 0-0.89297-0.14883-0.39687-0.13643-0.74414-0.44648-0.34726-0.31006-0.64492-0.71934-0.29766-0.42168-0.59531-0.85576l-6.9081-10.592v10.654q0 1.0418-0.48369 1.5751-0.48369 0.5333-1.2402 0.5333-0.78135 0-1.2526-0.5333-0.47129-0.5457-0.47129-1.5751v-14.027q0-0.89297 0.19844-1.4015 0.23564-0.5581 0.78135-0.90537 0.5457-0.35967 1.1782-0.35967 0.49609 0 0.84336 0.16123 0.35967 0.16123 0.62011 0.43408 0.27286 0.27285 0.54571 0.70693 0.28525 0.43408 0.58291 0.90537z"/>
   <path d="m153.84 109.21q2.8277 0 4.8493 1.1534 2.034 1.141 3.0758 3.2618 1.0418 2.1084 1.0418 4.9609 0 2.1084-0.57051 3.8323-0.57051 1.7239-1.7115 2.989-1.141 1.265-2.8029 1.9348-1.6619 0.66973-3.8075 0.66973-2.1332 0-3.8199-0.68213-1.6867-0.69453-2.8153-1.9472-1.1286-1.2526-1.7115-3.0138-0.57051-1.7611-0.57051-3.8075 0-2.096 0.59531-3.8447 0.60772-1.7487 1.7487-2.9766 1.141-1.2278 2.7781-1.8728 1.6371-0.65733 3.7207-0.65733zm5.2338 9.3514q0-1.9968-0.64492-3.4603-0.64492-1.4635-1.848-2.2076-1.1906-0.75654-2.7409-0.75654-1.1038 0-2.0464 0.42168-0.93018 0.40927-1.6123 1.203-0.66973 0.79375-1.0666 2.034-0.38447 1.2278-0.38447 2.7657 0 1.5503 0.38447 2.8029 0.39687 1.2526 1.1038 2.0836 0.71933 0.81855 1.6371 1.2278 0.93017 0.40928 2.034 0.40928 1.4139 0 2.5921-0.70694 1.1906-0.70693 1.8852-2.1828 0.70693-1.4759 0.70693-3.6339z"/>
  </g>
  <circle cx="37.827" cy="83.87" r="25" fill="#3498db" stroke-width=".26413"/>
  <circle cx="38.553" cy="86.014" r="17.5" fill="#fff" stroke-width=".18489"/>
  <circle cx="38.565" cy="86.002" r="16" fill="#3498db" stroke-width=".16904"/>
  <ellipse transform="rotate(-16.707)" cx="12.447" cy="75.317" rx="13.308" ry="8.0851" fill="#fff" opacity=".3" stroke-width=".10959"/>
  <text x="27.980413" y="95.554428" fill="#ffffff" font-family="'Arial Rounded MT Bold'" font-size="25.4px" letter-spacing="0px" stroke-width=".26458" word-spacing="0px" style="line-height:1.25" xml:space="preserve"><tspan x="27.980413" y="95.554428" fill="#ffffff" font-family="'Arial Rounded MT Bold'" stroke-width=".26458">K</tspan></text>
  <circle cx="80.517" cy="112.48" r="25" fill="#3498db" stroke-width=".26413"/>
  <circle cx="79.972" cy="110.19" r="17.5" fill="#fff" stroke-width=".18489"/>
  <circle cx="79.795" cy="110.1" r="16" fill="#3498db" stroke-width=".16904"/>
  <ellipse transform="rotate(1.4847)" cx="82.632" cy="93.755" rx="13.408" ry="8.1454" fill="#fff" opacity=".3" stroke-width=".11041"/>
  <path d="m85.743 103.54h-8.2972v4.4648h7.6398q0.84336 0 1.2526 0.38447 0.42168 0.37207 0.42168 0.99219t-0.40928 1.017q-0.40928 0.38447-1.265 0.38447h-7.6398v5.1718h8.5824q0.86816 0 1.3022 0.40928 0.44648 0.39687 0.44648 1.0666 0 0.64492-0.44648 1.0542-0.43408 0.39687-1.3022 0.39687h-10.009q-1.203 0-1.7363-0.5333-0.5209-0.5333-0.5209-1.7239v-13.667q0-0.79375 0.23564-1.2898 0.23564-0.50849 0.73174-0.73174 0.5085-0.23564 1.2898-0.23564h9.7234q0.88057 0 1.3022 0.39687 0.43408 0.38448 0.43408 1.017 0 0.64492-0.43408 1.0418-0.42168 0.38448-1.3022 0.38448z" fill="#fff"/>
 </g>
</svg>
