<?xml version="1.0" encoding="UTF-8"?>
<!-- Created with Inkscape (http://www.inkscape.org/) -->
<svg width="250mm" height="250mm" version="1.1" viewBox="0 0 250.00109 250.00108" xmlns="http://www.w3.org/2000/svg" xmlns:cc="http://creativecommons.org/ns#" xmlns:dc="http://purl.org/dc/elements/1.1/" xmlns:rdf="http://www.w3.org/1999/02/22-rdf-syntax-ns#">
 <metadata>
  <rdf:RDF>
   <cc:Work rdf:about="">
    <dc:format>image/svg+xml</dc:format>
    <dc:type rdf:resource="http://purl.org/dc/dcmitype/StillImage"/>
    <dc:title/>
   </cc:Work>
  </rdf:RDF>
 </metadata>
 <g transform="translate(342.62 -36.434)">
  <g transform="matrix(.98124 0 0 .98124 169.5 71.592)">
   <g transform="translate(49.712,38.487)">
    <g transform="rotate(22.761,243.1,-495.85)">
     <g>
      <rect transform="rotate(-22.761)" x="-398.71" y="58.348" width="254.78" height="254.78" rx="0" ry="0" fill="none" stroke-width=".28108"/>
      <g transform="translate(-254.43 152.72)">
       <path d="m-24.196 88.118a50 50 0 0 0 -8.6384 5.0047 50 50 0 0 0 -11.285 69.804 50 50 0 0 0 69.804 11.285 50 50 0 0 0 4.2709 -3.535 35 35 0 0 1 -3.4542 -11.516 35 35 0 0 0 0.0047 0.0563 35 35 0 0 1 -5.9063 5.4536 35 35 0 0 1 -48.863 -7.8995 35 35 0 0 1 7.8992 -48.863 35 35 0 0 1 6.0465 -3.5038 35 35 0 0 1 42.817 11.403 35 35 0 0 1 6.3442 16.109 35 35 0 0 0 -0.03377 0.0393 35 35 0 0 1 10.565 -8.2613 50 50 0 0 0 -8.4045 -19.287 50 50 0 0 0 -61.166 -16.289zm50.394 66.793a35 35 0 0 0 0.0351 1.027 35 35 0 0 1 -0.0351 -1.027z" fill="#3498db" stroke-width=".52825"/>
       <path d="m-13.08 107.14a32 32 0 0 0 -5.5284 3.203 32 32 0 0 0 -7.2223 44.674 32 32 0 0 0 44.675 7.2221 32 32 0 0 0 7.1061 -7.1295 35 35 0 0 1 6.1515 -19.38 32 32 0 0 0 -6.0354 -18.165 32 32 0 0 0 -39.147 -10.425zm9.6709 7.2666c0.53712-0.25508 1.0916-0.36108 1.6636-0.31875 0.91722 0.044 1.6685 0.41413 2.2537 1.111 0.70447 0.83884 0.97113 2.0347 0.8001 3.5868l-1.4285 12.489 17.742 4.7746c1.2398 0.32326 2.2563 0.66884 3.0496 1.037 0.78247 0.35521 1.4124 0.8166 1.8893 1.3844 0.53106 0.63236 0.74003 1.3923 0.6269 2.2796-0.10024 0.87644-0.57667 1.6722-1.4284 2.3875-0.80013 0.67196-1.5927 1.0516-2.3778 1.1387-0.79594 0.0742-1.6062-0.0262-2.4315-0.30141-0.82532-0.2752-1.5686-0.53111-2.2298-0.76811l-15.574-4.7473-0.91618 8.4612 4.9257 5.8651c0.9971 1.1873 1.469 2.2992 1.4147 3.3352-0.06515 1.023-0.52378 1.8922-1.3755 2.6074-0.4904 0.41185-1.0698 0.67834-1.7383 0.79956-0.66845 0.12123-1.3093 0.0653-1.923-0.16751-0.48414-0.20962-0.94664-0.53708-1.3864-0.98207-0.43973-0.44498-1.0384-1.1188-1.7971-2.0222l-17.721-21.1c-0.97542-1.1615-1.4551-2.2437-1.4395-3.2471 0.0285-1.0143 0.4818-1.89 1.3594-2.6269 0.86466-0.72615 1.8051-1.0211 2.8219-0.88471 1.0189 0.11264 2.0214 0.75626 3.0077 1.9306l8.3562 9.9496 1.4017-21.247c0.06515-1.023 0.17072-1.8272 0.31738-2.4125 0.15956-0.59616 0.55548-1.1598 1.1878-1.6909 0.30973-0.26011 0.62607-0.467 0.94834-0.62005z" fill="#3498db" stroke-width=".33808"/>
       <ellipse transform="rotate(-52.524)" cx="-107.6" cy="46.717" rx="26.617" ry="16.17" fill="#fff" opacity=".09" stroke-width=".21918"/>
       <path d="m63.948 43.882a50 50 0 0 0 -26.762 65.451 50 50 0 0 0 8.946 14.022 35 35 0 0 1 15.065 -3.4446 35 35 0 0 1 2.6234 0.13123 35 35 0 0 1 -5.4657 -8.9042 35 35 0 0 1 18.733 -45.816 35 35 0 0 1 45.816 18.733 35 35 0 0 1 0.74279 1.9637 35 35 0 0 1 8.5032 -6.1765 50 50 0 0 0 -2.7508 -9.1985 50 50 0 0 0 -65.451 -26.762zm49.449 63.592a35 35 0 0 0 1.6236 15.178 35 35 0 0 1 -10.85 7.2195 35 35 0 0 1 -16.163 2.5922 35 35 0 0 0 -0.10638 -0.11471 35 35 0 0 1 4.5259 6.769 50 50 0 0 0 10.21 -3.0227 50 50 0 0 0 14.393 -9.3056 35 35 0 0 1 -1.0846 -2.3292 35 35 0 0 1 -2.5486 -16.986zm-27.747 22.447a35 35 0 0 1 0.04402 0.0409 35 35 0 0 0 -0.04402 -0.0409z" fill="#3498db" stroke-width=".52825"/>
       <ellipse transform="rotate(-35.474)" cx="13.643" cy="90.932" rx="27.929" ry="16.967" fill="#fff" opacity=".09" stroke-width=".22999"/>
       <g transform="rotate(-7.287 122.17 -1877.8)">
        <path transform="matrix(.25987 -.071941 .071941 .25987 -334.14 12.736)" d="m375.47 391.38a185.43 185.43 0 0 0 -178.58 135.96 185.43 185.43 0 0 0 129.24 228.18 185.43 185.43 0 0 0 228.18 -129.24 185.43 185.43 0 0 0 -129.24 -228.18 185.43 185.43 0 0 0 -49.607 -6.7227zm0.67578 38.182a129.8 129.8 0 0 1 34.725 4.7051 129.8 129.8 0 0 1 90.465 159.73 129.8 129.8 0 0 1 -159.73 90.465 129.8 129.8 0 0 1 -90.467 -159.73 129.8 129.8 0 0 1 125 -95.17z" fill="#3498db" stroke-width="1.9591"/>
        <path transform="matrix(.25987 -.071941 .071941 .25987 -334.14 12.736)" d="m376.15 440.69a118.68 118.68 0 0 0 -114.29 87.014 118.68 118.68 0 0 0 82.711 146.04 118.68 118.68 0 0 0 146.04 -82.711 118.68 118.68 0 0 0 -82.711 -146.04 118.68 118.68 0 0 0 -31.748 -4.3027zm-23.445 43.223c2.2362-0.061 4.7503 0.29524 7.543 1.0684l69.508 19.242c4.1963 1.1617 7.0374 2.9664 8.5234 5.4141 1.5614 2.405 1.9243 5.1146 1.0898 8.1289-0.85081 3.0733-2.5718 5.2691-5.1641 6.5879-2.5168 1.276-5.8738 1.3336-10.07 0.17187l-2e-3 -2e-3 -59.311-16.418-8.8359 31.916 54.613 15.119c4.0191 1.1126 6.75 2.8544 8.1934 5.2266 1.5187 2.3294 1.8689 4.9724 1.0508 7.9277-0.81813 2.9553-2.4635 5.1076-4.9375 6.459-2.4577 1.2923-5.7264 1.3751-9.8047 0.24609l-54.613-15.119-10.234 36.971 61.35 16.984c4.1372 1.1453 6.9712 2.9807 8.5 5.5039 1.6042 2.4804 1.9636 5.3162 1.0801 8.5078-0.85081 3.0733-2.6096 5.2908-5.2773 6.6523-2.5922 1.3186-5.9564 1.4051-10.094 0.25977l-71.545-19.807c-5.7332-1.5872-9.5195-4.003-11.357-7.248-1.7788-3.2287-1.8814-7.6813-0.31054-13.355l27.047-97.699c1.0472-3.7827 2.4588-6.7006 4.2363-8.7539 1.7938-2.1124 4.0209-3.3738 6.6797-3.7832 0.68354-0.11303 1.3972-0.18083 2.1426-0.20117z" fill="#3498db" stroke-width="1.2538"/>
        <ellipse transform="rotate(1.4847)" cx="-193.01" cy="107.42" rx="26.815" ry="16.291" fill="#fff" opacity=".09" stroke-width=".22082"/>
       </g>
       <path d="m137.23 65.788a50 50 0 0 0 -31.882 46.602 50 50 0 0 0 50 50 50 50 0 0 0 50 -50 50 50 0 0 0 -50 -50 50 50 0 0 0 -18.118 3.3981zm-1.4444 12.771a35 35 0 0 1 12.683 -2.3787 35 35 0 0 1 35 35 35 35 0 0 1 -35 35 35 35 0 0 1 -35 -35 35 35 0 0 1 22.317 -32.621z" fill="#3498db" stroke-width=".52825"/>
       <path d="m136.87 81.355a32 32 0 0 0 -20.404 29.825 32 32 0 0 0 32 32 32 32 0 0 0 32 -32 32 32 0 0 0 -32 -32 32 32 0 0 0 -11.596 2.1746zm4.0343 12.335c2.1828-0.87647 4.6634-1.3152 7.4416-1.3152 3.7703 0 7.0032 0.76898 9.6986 2.3068 2.712 1.5213 4.7623 3.6962 6.1513 6.5239 1.3891 2.8112 2.0838 6.1182 2.0838 9.9216 0 2.8112-0.38062 5.366-1.1413 7.6646-0.76067 2.2985-1.9015 4.2915-3.4229 5.9782-1.5213 1.6867-3.3898 2.9765-5.6058 3.8694-2.2159 0.893-4.7545 1.3395-7.6153 1.3395-2.8443 1e-5 -5.3904-0.45478-7.6394-1.3643-2.2489-0.92607-4.1262-2.2239-5.631-3.894-1.5048-1.6702-2.6457-3.6797-3.4229-6.0279-0.76066-2.3482-1.1412-4.8866-1.1412-7.6151 0-2.7947 0.39711-5.3578 1.1908-7.6894 0.81026-2.3317 1.976-4.3159 3.4974-5.953 1.5213-1.6371 3.3733-2.8854 5.5562-3.7453zm3.3492 5.3826c-1.2403 0.54569-2.3153 1.3478-3.2248 2.4061-0.893 1.0583-1.6037 2.4143-2.1329 4.068-0.51263 1.6371-0.76905 3.4808-0.76905 5.5313 0 2.0671 0.25615 3.9355 0.76877 5.6057 0.52916 1.6702 1.2652 3.0596 2.2077 4.1675 0.95913 1.0914 2.0505 1.9099 3.2742 2.4556 1.2402 0.54571 2.596 0.8188 4.0678 0.8188 1.8851 0 3.6131-0.4717 5.1841-1.4143 1.5875-0.9426 2.8445-2.3978 3.7705-4.3656 0.9426-1.9678 1.414-4.3905 1.414-7.2679 0-2.6624-0.43025-4.9691-1.2901-6.9204-0.85987-1.9513-2.0915-3.4232-3.6955-4.4154-1.5875-1.0087-3.4148-1.5128-5.4818-1.5128-1.4717-2e-6 -2.8361 0.28116-4.0929 0.8434z" fill="#3498db" stroke-width=".33808"/>
       <ellipse transform="matrix(.98598 -.16689 .35412 .9352 0 0)" cx="115" cy="107.93" rx="29.443" ry="17.479" fill="#fff" opacity=".09" stroke-width=".23968"/>
       <path d="m78.249 68.089a32 32 0 0 0 -17.128 41.888 32 32 0 0 0 8.0439 11.306 35 35 0 0 1 15.157 7.6793 32 32 0 0 0 18.687 -1.8574 32 32 0 0 0 11.465 -8.2272 35 35 0 0 1 6.9813 -29.723 32 32 0 0 0 -1.3184 -3.9387 32 32 0 0 0 -41.888 -17.128zm15.982 7.6057c0.97592-0.40946 1.8836-0.40433 2.723 0.01464 0.83291 0.40373 1.5213 1.2533 2.0651 2.5494l11.065 26.373c1.2348 2.943 0.6324 4.9267-1.8074 5.9504-0.60994 0.25591-1.1974 0.39432-1.7621 0.41606-0.55833 0.037-1.1308-0.0453-1.7178-0.24735-0.5869-0.20208-1.1689-0.47808-1.746-0.82776-0.58349-0.36491-1.1703-0.73747-1.7602-1.1176l-20.935-14.188 8.2434 19.648c0.53741 1.2809 0.64613 2.3736 0.32654 3.2789-0.3196 0.9052-0.94434 1.5533-1.8745 1.9436-0.96067 0.40306-1.8684 0.39795-2.723-0.0146-0.86095-0.42783-1.5569-1.2742-2.0879-2.5399l-10.854-25.87c-0.46063-1.0979-0.69987-2.0106-0.7182-2.7382 0.0018-0.80774 0.24852-1.5657 0.74037-2.2741 0.4854-0.72371 1.1167-1.2487 1.8944-1.575 0.60994-0.25591 1.1701-0.37451 1.6802-0.35541 0.52538 0.0127 1.0187 0.11985 1.4797 0.32097 0.47623 0.19472 0.99392 0.48877 1.5533 0.88175 0.57464 0.38655 1.1666 0.79261 1.7757 1.2185l4.98e-4 -2.09e-4 21.351 14.283-8.3685-19.946c-0.54381-1.2961-0.67525-2.3794-0.39501-3.2501 0.2891-0.89241 0.90627-1.5373 1.8517-1.934z" fill="#3498db" stroke-width=".33808"/>
      </g>
     </g>
    </g>
   </g>
  </g>
 </g>
</svg>
