<?xml version="1.0" encoding="UTF-8"?>
<!-- Created with Inkscape (http://www.inkscape.org/) -->
<svg width="250mm" height="250mm" version="1.1" viewBox="0 0 250 250" xmlns="http://www.w3.org/2000/svg" xmlns:cc="http://creativecommons.org/ns#" xmlns:dc="http://purl.org/dc/elements/1.1/" xmlns:rdf="http://www.w3.org/1999/02/22-rdf-syntax-ns#">
 <metadata>
  <rdf:RDF>
   <cc:Work rdf:about="">
    <dc:format>image/svg+xml</dc:format>
    <dc:type rdf:resource="http://purl.org/dc/dcmitype/StillImage"/>
    <dc:title/>
   </cc:Work>
  </rdf:RDF>
 </metadata>
 <g transform="translate(54.429 5.1607)">
  <rect x="-54.429" y="-5.1607" width="250" height="250" rx="0" ry="0" fill="none" stroke-width=".27581"/>
  <g transform="matrix(.98124 0 0 .98124 169.5 71.592)">
   <g transform="translate(49.712,38.487)">
    <g transform="rotate(-13.056,-271.34,454.72)">
     <circle cx="-123.88" cy="11.052" r="50" fill="#3498db" stroke-width=".52825"/>
     <circle cx="-122.42" cy="15.339" r="35" fill="#fff" stroke-width=".36978"/>
     <circle cx="-122.42" cy="15.339" r="32" fill="#3498db" stroke-width=".33808"/>
     <ellipse transform="rotate(-16.707)" cx="-121.17" cy="-56.8" rx="26.617" ry="16.17" fill="#fff" opacity=".09" stroke-width=".21918"/>
     <g transform="matrix(2,0,0,2,-197.89,-157.59)" fill="#fff" aria-label="K">
      <path d="m33.673 79.295v6.3748l7.2306-7.5406q0.5209-0.5457 0.88057-0.80615 0.37207-0.26045 0.97978-0.26045 0.79375 0 1.2774 0.47129 0.49609 0.45889 0.49609 1.1286 0 0.80615-0.83096 1.5999l-4.4772 4.2416 5.1594 7.3918q0.5457 0.76894 0.81856 1.3519 0.27285 0.57051 0.27285 1.1162 0 0.60772-0.48369 1.0542-0.47129 0.44648-1.2898 0.44648-0.76894 0-1.2526-0.32246-0.48369-0.33486-0.81855-0.88057-0.33486-0.5457-0.59531-0.99219l-4.3532-6.6973-3.0138 2.8897v3.7579q0 1.141-0.5209 1.6991-0.5209 0.5457-1.3395 0.5457-0.47129 0-0.90537-0.24805t-0.66973-0.66973q-0.17363-0.34726-0.21084-0.80615t-0.03721-1.3271v-13.519q0-1.1162 0.48369-1.6743 0.49609-0.5581 1.3395-0.5581 0.83096 0 1.3395 0.5581 0.5209 0.5457 0.5209 1.6743z" fill="#fff" stroke-width=".26458"/>
     </g>
    </g>
    <g transform="translate(-162.14,-24.876)">
     <circle cx="31.223" cy="7.4158" r="50" fill="#3498db" stroke-width=".52825"/>
     <circle cx="35.045" cy="17.27" r="35" fill="#fff" stroke-width=".36978"/>
     <circle cx="35.045" cy="17.27" r="32" fill="#3498db" stroke-width=".33808"/>
     <ellipse transform="rotate(-12.713)" cx="26.861" cy="-16.585" rx="27.929" ry="16.967" fill="#fff" opacity=".09" stroke-width=".22999"/>
     <path d="m29.328 2.8828 14.163 21.431v-21.63q0-2.1084 0.89296-3.1502 0.91778-1.0666 2.4557-1.0666 1.5875 0 2.5053 1.0666 0.91778 1.0418 0.91778 3.1502v28.6q0 4.7873-3.9688 4.7873-0.99218 0-1.7859-0.29766-0.79374-0.27285-1.4883-0.89296-0.69452-0.62012-1.2898-1.4387-0.59532-0.84336-1.1906-1.7115l-13.816-21.183v21.307q0 2.0836-0.96738 3.1502t-2.4805 1.0666q-1.5627 0-2.5053-1.0666-0.94258-1.0914-0.94258-3.1502v-28.054q0-1.7859 0.39688-2.8029 0.47128-1.1162 1.5627-1.8107 1.0914-0.71934 2.3564-0.71934 0.99218 0 1.6867 0.32246 0.71934 0.32246 1.2402 0.86816 0.54572 0.5457 1.0914 1.4139 0.5705 0.86816 1.1658 1.8107z" fill="#fff"/>
    </g>
    <g transform="rotate(15.474,170.34,154.92)">
     <circle cx="-195.04" cy="135.61" r="50" fill="#3498db" stroke-width=".52825"/>
     <circle cx="-196.13" cy="131.03" r="35" fill="#fff" stroke-width=".36978"/>
     <circle cx="-196.13" cy="131.03" r="32" fill="#3498db" stroke-width=".33808"/>
     <ellipse transform="rotate(1.4847)" cx="-193.01" cy="107.42" rx="26.815" ry="16.291" fill="#fff" opacity=".09" stroke-width=".22082"/>
     <path d="m-186.19 118.53h-16.594v8.9297h15.28q1.6867 0 2.5053 0.76894 0.84336 0.74414 0.84336 1.9844t-0.81856 2.034q-0.81855 0.76894-2.5301 0.76894h-15.28v10.344h17.165q1.7363 0 2.6045 0.81856 0.89297 0.79374 0.89297 2.1332 0 1.2898-0.89297 2.1084-0.86816 0.79374-2.6045 0.79374h-20.017q-2.4061 0-3.4727-1.0666-1.0418-1.0666-1.0418-3.4479v-27.335q0-1.5875 0.47129-2.5797 0.47129-1.017 1.4635-1.4635 1.017-0.47128 2.5797-0.47128h19.447q1.7611 0 2.6045 0.79374 0.86817 0.76896 0.86817 2.034 0 1.2898-0.86817 2.0836-0.84335 0.76896-2.6045 0.76897z" fill="#fff"/>
    </g>
    <g transform="rotate(22.761,243.1,-495.85)">
     <circle cx="155.35" cy="112.39" r="50" fill="#3498db" stroke-width=".52825"/>
     <circle cx="148.47" cy="111.18" r="35" fill="#fff" stroke-width=".36978"/>
     <circle cx="148.47" cy="111.18" r="32" fill="#3498db" stroke-width=".33808"/>
     <ellipse transform="matrix(.98598 -.16689 .35412 .9352 0 0)" cx="115" cy="107.93" rx="29.443" ry="17.479" fill="#fff" opacity=".09" stroke-width=".23968"/>
     <path d="m148.35 92.375q5.6555 0 9.6986 2.3068 4.068 2.282 6.1516 6.5236 2.0836 4.2168 2.0836 9.9219 0 4.2168-1.141 7.6647-1.141 3.4478-3.423 5.9779t-5.6059 3.8695q-3.3238 1.3395-7.615 1.3395-4.2664 0-7.6399-1.3643-3.3734-1.3891-5.6307-3.8943-2.2572-2.5053-3.423-6.0275-1.141-3.5223-1.141-7.615 0-4.192 1.1906-7.6894 1.2154-3.4975 3.4975-5.9531 2.282-2.4557 5.5563-3.7455 3.2742-1.3147 7.4414-1.3147zm10.468 18.703q0-3.9936-1.2898-6.9205t-3.6959-4.4152q-2.3812-1.5131-5.4818-1.5131-2.2076 0-4.0928 0.84336-1.8604 0.81854-3.2246 2.406-1.3395 1.5875-2.1332 4.068-0.76894 2.4557-0.76894 5.5314 0 3.1006 0.76894 5.6059 0.79374 2.5053 2.2076 4.1672 1.4387 1.6371 3.2742 2.4557 1.8603 0.81856 4.068 0.81856 2.8277 0 5.1842-1.4139 2.3813-1.4139 3.7703-4.3656 1.4139-2.9517 1.4139-7.2678z" fill="#fff"/>
    </g>
   </g>
  </g>
 </g>
</svg>
