<svg xmlns="http://www.w3.org/2000/svg" viewBox="0 0 1649.06 410.9"><defs><style>.cls-1{fill:#fff;}</style></defs><title>top</title><g id="2" data-name="2"><g id="1-2" data-name="1"><path class="cls-1" d="M386.78,310.57,148,408.26a35.48,35.48,0,0,1-46.22-19.38L2.64,146.54A35.46,35.46,0,0,1,22,100.33L260.8,2.64A35.48,35.48,0,0,1,307,22l99.14,242.34A35.48,35.48,0,0,1,386.78,310.57ZM26.38,111A24,24,0,0,0,13.3,142.18l99.14,242.34a24,24,0,0,0,31.2,13.08l238.77-97.69a24,24,0,0,0,13.09-31.19L296.35,26.38A24,24,0,0,0,265.16,13.3Z"/><ellipse class="cls-1" cx="204.4" cy="205.45" rx="40.02" ry="40.5" transform="translate(-62.57 92.69) rotate(-22.25)"/><ellipse class="cls-1" cx="329.77" cy="254.73" rx="40.02" ry="40.5" transform="translate(-71.9 143.84) rotate(-22.25)"/><ellipse class="cls-1" cx="259.43" cy="82.36" rx="40.02" ry="40.5" transform="translate(-11.87 104.37) rotate(-22.25)"/><ellipse class="cls-1" cx="152.67" cy="327.18" rx="40.02" ry="40.5" transform="translate(-112.52 82.17) rotate(-22.25)"/><ellipse class="cls-1" cx="82.33" cy="154.82" rx="40.02" ry="40.5" transform="translate(-52.49 42.7) rotate(-22.25)"/><path class="cls-1" d="M558,264.41v-4a101.56,101.56,0,0,1-15.89,15,59.76,59.76,0,0,1-17,8.79,63.82,63.82,0,0,1-20,3,59,59,0,0,1-26.59-6.08,62,62,0,0,1-21.16-17.36,78.93,78.93,0,0,1-13.55-26.51,113.08,113.08,0,0,1-4.62-33q0-37.5,18.31-58.45T505.75,125q17.28,0,29.15,5.93T558,149.13v-59q0-12.3,4.91-18.6t14-6.3q9.07,0,14,5.79T595.83,88V264.41q0,11.43-5.27,17.14a17.7,17.7,0,0,1-13.62,5.71,17.45,17.45,0,0,1-13.55-5.93Q558,275.39,558,264.41Zm-78.66-58.74q0,16.26,5.05,27.68t13.84,17.22a34.18,34.18,0,0,0,19.19,5.78,35.42,35.42,0,0,0,19.27-5.49q8.71-5.49,13.91-16.85t5.2-28.34q0-16-5.2-27.47t-14.06-17.57a33.55,33.55,0,0,0-19.41-6.08,32.75,32.75,0,0,0-19.63,6.22q-8.64,6.22-13.4,17.87T479.38,205.67Z"/><path class="cls-1" d="M656.18,106.06a21.11,21.11,0,0,1-14.28-5.13Q636,95.82,636,86.43a18,18,0,0,1,6.08-14A20.42,20.42,0,0,1,656.18,67a21,21,0,0,1,13.77,5q6,5,6,14.5,0,9.22-5.86,14.43A20.27,20.27,0,0,1,656.18,106.06ZM676,147.37V262.94q0,12-5.71,18.17a18.94,18.94,0,0,1-14.5,6.15,18.08,18.08,0,0,1-14.29-6.3q-5.49-6.3-5.49-18V148.54q0-11.86,5.49-17.87a18.5,18.5,0,0,1,14.29-6,19.18,19.18,0,0,1,14.5,6Q676,136.67,676,147.37Z"/><path class="cls-1" d="M860.68,237.75q0,7.47-4.47,16a54.86,54.86,0,0,1-13.62,16.18q-9.17,7.69-23.08,12.38A98,98,0,0,1,788.17,287q-37.06,0-57.86-21.61t-20.8-57.93q0-24.62,9.52-43.51a68.21,68.21,0,0,1,27.54-29.22q18-10.33,43.06-10.33a85.85,85.85,0,0,1,28.49,4.54,74.6,74.6,0,0,1,22,11.72,56.46,56.46,0,0,1,13.77,15.31q4.75,8.13,4.76,15.16a16,16,0,0,1-5.35,12.16,18.35,18.35,0,0,1-13,5,13.07,13.07,0,0,1-8.28-2.57,40.07,40.07,0,0,1-7.4-8.27q-7.32-11.13-15.31-16.7t-20.28-5.57q-17.73,0-28.57,13.84t-10.84,37.87a73,73,0,0,0,2.79,20.73,47,47,0,0,0,8.05,16.11,34.44,34.44,0,0,0,12.75,10.11,38.76,38.76,0,0,0,16.4,3.44q12,0,20.58-5.56t15.16-17a39.11,39.11,0,0,1,7.91-10.54,15,15,0,0,1,10.4-3.81,15.41,15.41,0,0,1,12.16,5.56Q860.69,231.46,860.68,237.75Z"/><path class="cls-1" d="M1007.16,215.78H928.94a53,53,0,0,0,5.49,24,36.79,36.79,0,0,0,33.77,20.95,47.69,47.69,0,0,0,13.11-1.69,42.88,42.88,0,0,0,11.5-5.27,88.37,88.37,0,0,0,10.25-7.69q4.68-4.09,12.16-11.13,3.07-2.64,8.79-2.64a14.46,14.46,0,0,1,10,3.37q3.81,3.38,3.81,9.52,0,5.42-4.25,12.67a50.63,50.63,0,0,1-12.82,13.92,73.06,73.06,0,0,1-21.53,11.06q-13,4.39-29.81,4.39-38.54,0-59.91-22t-21.39-59.62a99.62,99.62,0,0,1,5.27-32.89,72.77,72.77,0,0,1,15.38-26,66.78,66.78,0,0,1,24.91-16.62,89.32,89.32,0,0,1,32.81-5.79q23.43,0,40.21,9.89t25.12,25.56a67.16,67.16,0,0,1,8.35,31.93q0,15.09-8.64,19.56T1007.16,215.78Zm-78.22-22.71h72.51q-1.47-20.5-11.06-30.69T965.12,152.2q-14.94,0-24.54,10.33T928.94,193.07Z"/><path class="cls-1" d="M1076,128.18h4.39v-24q0-9.68.52-15.17a22.34,22.34,0,0,1,2.85-9.44,18,18,0,0,1,6.74-6.67,19.11,19.11,0,0,1,9.82-2.56A19.73,19.73,0,0,1,1114.09,76a16.88,16.88,0,0,1,5.2,9.3,83.78,83.78,0,0,1,1.1,15.6v27.25H1135q8.49,0,13,4a13.29,13.29,0,0,1,4.46,10.32q0,8.07-6.37,11.28T1127.86,157h-7.47v73.53a119.21,119.21,0,0,0,.66,14.43,14.65,14.65,0,0,0,3.52,8.2q2.85,3.15,9.3,3.15a49.65,49.65,0,0,0,9.52-1.24,49.5,49.5,0,0,1,9.38-1.25,12.07,12.07,0,0,1,8.71,3.88,13,13,0,0,1,3.88,9.6q0,9.66-10.54,14.79t-30.32,5.13q-18.76,0-28.42-6.3a29.21,29.21,0,0,1-12.67-17.43q-3-11.13-3-29.74V157h-5.27q-8.64,0-13.18-4.11a13.39,13.39,0,0,1-4.54-10.4,12.89,12.89,0,0,1,4.76-10.32Q1066.92,128.18,1076,128.18Z"/><path class="cls-1" d="M1219.12,89.51v59.32A85.69,85.69,0,0,1,1234,134.92a53.56,53.56,0,0,1,16-7.69,67.19,67.19,0,0,1,18.9-2.57q15.22,0,27,6.45a50,50,0,0,1,24.24,34.79,127.31,127.31,0,0,1,1.46,20.43v76.61q0,12-5.49,18.17t-14.58,6.15q-19.77,0-19.77-24.32V195.42q0-19.2-5.71-29.52t-21.68-10.33a32.55,32.55,0,0,0-19.27,6.08,36.58,36.58,0,0,0-12.81,16.63q-3.22,8.92-3.23,31.78v52.88q0,11.87-5.34,18.1t-14.87,6.22q-19.77,0-19.78-24.32V89.51q0-12.17,5.2-18.24t14.58-6.08q9.52,0,14.87,6.15T1219.12,89.51Z"/><path class="cls-1" d="M1472.83,215.78h-78.22a53,53,0,0,0,5.5,24,36.76,36.76,0,0,0,33.76,20.95,47.63,47.63,0,0,0,13.11-1.69,42.6,42.6,0,0,0,11.5-5.27,87.52,87.52,0,0,0,10.25-7.69q4.69-4.09,12.16-11.13,3.08-2.64,8.79-2.64a14.46,14.46,0,0,1,10,3.37q3.81,3.38,3.81,9.52,0,5.42-4.25,12.67a50.32,50.32,0,0,1-12.82,13.92,73.06,73.06,0,0,1-21.53,11.06q-13,4.39-29.81,4.39-38.52,0-59.91-22t-21.39-59.62a99.36,99.36,0,0,1,5.28-32.89,72.49,72.49,0,0,1,15.38-26,66.74,66.74,0,0,1,24.9-16.62,89.32,89.32,0,0,1,32.81-5.79q23.45,0,40.21,9.89t25.12,25.56a67.16,67.16,0,0,1,8.35,31.93q0,15.09-8.64,19.56T1472.83,215.78Zm-78.22-22.71h72.51q-1.47-20.5-11.06-30.69t-25.27-10.18q-14.94,0-24.53,10.33T1394.61,193.07Z"/><path class="cls-1" d="M1579.18,229.55v33.39q0,12.17-5.71,18.24a19,19,0,0,1-14.5,6.08,18.3,18.3,0,0,1-14.21-6.15q-5.57-6.15-5.57-18.17V151.62q0-27,19.48-27,10,0,14.36,6.3t4.83,18.61q7.19-12.31,14.73-18.61t20.14-6.3a51.56,51.56,0,0,1,24.46,6.3q11.86,6.3,11.87,16.7a15.9,15.9,0,0,1-5.06,12.09q-5.05,4.75-10.91,4.76-2.21,0-10.62-2.71a49.3,49.3,0,0,0-14.87-2.71q-8.79,0-14.35,4.61t-8.65,13.7a95.45,95.45,0,0,0-4.25,21.6Q1579.18,211.52,1579.18,229.55Z"/></g></g></svg>