<?xml version="1.0" encoding="UTF-8" standalone="no"?>
<svg
   width="2077.3"
   height="410"
   version="1.1"
   viewBox="0 0 549.64028 108.48"
   id="svg1111"
   xmlns="http://www.w3.org/2000/svg"
   xmlns:svg="http://www.w3.org/2000/svg"
   xmlns:rdf="http://www.w3.org/1999/02/22-rdf-syntax-ns#"
   xmlns:cc="http://creativecommons.org/ns#"
   xmlns:dc="http://purl.org/dc/elements/1.1/">
  <metadata
     id="metadata1115">
    <rdf:RDF>
      <cc:Work
         rdf:about="">
        <dc:format>image/svg+xml</dc:format>
        <dc:type
           rdf:resource="http://purl.org/dc/dcmitype/StillImage" />
      </cc:Work>
    </rdf:RDF>
  </metadata>
  <defs
     id="defs1065">
    <style
       id="style1061">.cls-1{fill:#f7f7fa;}</style>
    <style
       id="style1063">.cls-1{fill:#f7f7fa;}</style>
  </defs>
  <g
     transform="translate(-63.193,-7.1873)"
     id="g1109">
    <g
       transform="matrix(1.2735,0,0,1.2735,-82.985,2635.9)"
       data-name="2"
       id="g1107">
      <g
         fill="#f7f7fa"
         data-name="1"
         id="g1105">
        <g
           transform="matrix(5.4336,0,0,5.4336,-508.91,8774)"
           id="g1083">
          <path
             transform="translate(0.16631,0.27027)"
             d="m 125.2,-1994.8 c -0.1697,-0.1698 -0.44298,-0.1698 -0.61269,0 l -4.1297,4.1296 c -0.16971,0.1697 -0.16971,0.4429 0,0.6127 l 4.1297,4.1296 c 0.16971,0.1698 0.44298,0.1698 0.61269,0 l 4.1297,-4.1296 c 0.16971,-0.1698 0.16973,-0.443 0,-0.6127 z m 0.27488,0.904 a 0.83835,0.83835 0 0 1 -1e-5,1.1855 0.83835,0.83835 0 0 1 -1.1857,0 0.83835,0.83835 0 0 1 2.2e-4,-1.1853 0.83835,0.83835 0 0 1 1.1855,-2e-4 z m 2.9278,2.9276 a 0.83835,0.83835 0 0 1 -1e-5,1.1857 0.83835,0.83835 0 0 1 -1.1857,10e-5 0.83835,0.83835 0 0 1 2.1e-4,-1.1856 0.83835,0.83835 0 0 1 1.1855,-2e-4 z m -2.9161,0.011 a 0.83835,0.83835 0 0 1 -2e-4,1.1855 0.83835,0.83835 0 0 1 -1.1853,10e-5 0.83835,0.83835 0 0 1 -2e-4,-1.1856 0.83835,0.83835 0 0 1 1.1857,0 z m -2.9396,-0.011 a 0.83835,0.83835 0 0 1 1.9e-4,1.1854 0.83835,0.83835 0 0 1 -1.1857,10e-5 0.83835,0.83835 0 0 1 2e-4,-1.1855 0.83835,0.83835 0 0 1 1.1853,0 z m 2.9278,2.9278 a 0.83835,0.83835 0 0 1 2e-4,1.1855 0.83835,0.83835 0 0 1 -1.1857,0 0.83835,0.83835 0 0 1 2.2e-4,-1.1854 0.83835,0.83835 0 0 1 1.1853,-10e-5 z"
             fill="#20c997"
             fill-rule="evenodd"
             stroke-width="0.19043"
             id="path1067" />
          <g
             transform="translate(0.16631,0.27027)"
             fill="#f7f7fa"
             id="g1081">
            <g
               fill-rule="evenodd"
               stroke-width="0.0075243"
               id="g1077">
              <path
                 d="m 129.16,-1988.4 1.0319,-1.0318 c 0.10719,-0.1072 0.27978,-0.1072 0.38697,0 l 4.5146,4.5145 c 0.10718,0.1072 0.10718,0.2798 0,0.387 l -1.0319,1.0319 c -0.10719,0.1072 -0.27979,0.1072 -0.38698,0 l -4.5146,-4.5146 c -0.10719,-0.1072 -0.10719,-0.2798 0,-0.387 z"
                 id="path1069" />
              <path
                 d="m 130.58,-1989.4 1.0319,1.0318 c 0.10719,0.1073 0.10719,0.2799 0,0.3871 l -4.5146,4.5146 c -0.10719,0.1072 -0.27978,0.1072 -0.38697,0 l -1.0319,-1.0319 c -0.10719,-0.1072 -0.10719,-0.2798 0,-0.387 l 4.5146,-4.5146 c 0.10718,-0.1072 0.27977,-0.1072 0.38696,0 z"
                 id="path1071" />
              <path
                 d="m 118.18,-1988.4 1.0319,-1.0319 c 0.10718,-0.1072 0.27977,-0.1072 0.38696,0 l 4.5146,4.5145 c 0.1072,0.1072 0.1072,0.2799 0,0.3871 l -1.0319,1.0318 c -0.10719,0.1072 -0.27978,0.1072 -0.38696,0 l -4.5146,-4.5146 c -0.1072,-0.1071 -0.1072,-0.2797 0,-0.3869 z"
                 id="path1073" />
              <path
                 d="m 119.6,-1989.4 1.0319,1.0319 c 0.10719,0.1072 0.10719,0.2798 0,0.3869 l -4.5146,4.5146 c -0.10719,0.1072 -0.27977,0.1072 -0.38696,0 l -1.0319,-1.0318 c -0.10718,-0.1072 -0.10718,-0.2799 0,-0.3871 l 4.5146,-4.5145 c 0.10719,-0.1072 0.27977,-0.1072 0.38696,0 z"
                 id="path1075" />
            </g>
            <path
               d="m 124.89,-1985.1 a 2.4996,2.925 0 0 0 -2.4994,2.9248 2.4996,2.925 0 0 0 2.4994,2.9251 2.4996,2.925 0 0 0 2.4998,-2.9251 2.4996,2.925 0 0 0 -2.4998,-2.9248 z m 0,1.8147 a 0.56573,1.1103 0 0 1 0.56558,1.1101 0.56573,1.1103 0 0 1 -0.56558,1.1104 0.56573,1.1103 0 0 1 -0.56559,-1.1104 0.56573,1.1103 0 0 1 0.56559,-1.1101 z"
               stroke-width="0.98993"
               style="paint-order:stroke fill markers"
               id="path1079" />
          </g>
        </g>
        <g
           transform="matrix(4.109,0,0,4.109,-325.21,6142.5)"
           fill="#f7f7fa"
           id="g1103">
          <path
             class="cls-1"
             d="m 142.18,-1982.4 v -0.2023 a 5.1355,5.1355 0 0 1 -0.80349,0.7585 3.0218,3.0218 0 0 1 -0.85962,0.4445 3.2271,3.2271 0 0 1 -1.0113,0.1517 2.9834,2.9834 0 0 1 -1.3446,-0.3075 3.1351,3.1351 0 0 1 -1.07,-0.8778 3.9912,3.9912 0 0 1 -0.68517,-1.3405 5.718,5.718 0 0 1 -0.23362,-1.6687 q 0,-1.8962 0.92587,-2.9556 0.92587,-1.0593 2.4398,-1.0517 0.87378,0 1.474,0.2998 0.60022,0.2999 1.1681,0.9203 v -2.9834 q 0,-0.6219 0.24828,-0.9405 0.24828,-0.3186 0.70793,-0.3186 0.45863,0 0.70793,0.2928 0.24929,0.2928 0.24878,0.8586 v 8.9204 q 0,0.578 -0.26648,0.8667 a 0.89502,0.89502 0 0 1 -0.68871,0.2887 0.88238,0.88238 0 0 1 -0.68517,-0.2998 q -0.27256,-0.3004 -0.27256,-0.8556 z m -3.9775,-2.9703 q 0,0.8222 0.25536,1.3997 0.25536,0.5775 0.69984,0.8708 a 1.7284,1.7284 0 0 0 0.97036,0.2922 1.7911,1.7911 0 0 0 0.97441,-0.2776 q 0.44043,-0.2776 0.70338,-0.852 0.26294,-0.5745 0.26294,-1.4331 0,-0.809 -0.26294,-1.389 -0.26295,-0.58 -0.71096,-0.8885 a 1.6965,1.6965 0 0 0 -0.98149,-0.3074 1.656,1.656 0 0 0 -0.99262,0.3145 q -0.43689,0.3145 -0.67758,0.9036 -0.2407,0.5891 -0.23867,1.3668 z"
             stroke-width="0.050566"
             id="path1085" />
          <path
             class="cls-1"
             d="m 147.15,-1990.4 a 1.0674,1.0674 0 0 1 -0.72208,-0.2594 q -0.29833,-0.2584 -0.29833,-0.7332 a 0.91017,0.91017 0 0 1 0.30743,-0.7079 1.0325,1.0325 0 0 1 0.71298,-0.2746 1.0619,1.0619 0 0 1 0.69627,0.2529 q 0.3034,0.2528 0.3034,0.7332 0,0.4662 -0.29632,0.7296 A 1.025,1.025 0 0 1 147.15,-1990.4 Z m 1.0022,2.0888 v 5.8439 q 0,0.6067 -0.28874,0.9187 a 0.9577,0.9577 0 0 1 -0.73318,0.311 0.91422,0.91422 0 0 1 -0.72258,-0.3185 q -0.2776,-0.3186 -0.2776,-0.9102 v -5.7857 q 0,-0.5996 0.2776,-0.9035 a 0.93545,0.93545 0 0 1 0.72258,-0.3034 0.96984,0.96984 0 0 1 0.73318,0.3034 q 0.28874,0.3034 0.28874,0.8443 z"
             stroke-width="0.050565"
             id="path1087" />
          <g
             stroke-width="0.050566"
             id="g1101">
            <path
               class="cls-1"
               d="m 157.49,-1983.8 q 0,0.3777 -0.22603,0.8091 a 2.7741,2.7741 0 0 1 -0.68871,0.8181 q -0.46369,0.3889 -1.1671,0.626 a 4.9555,4.9555 0 0 1 -1.5847,0.2372 q -1.874,0 -2.9258,-1.0928 -1.0518,-1.0927 -1.0518,-2.9293 0,-1.2449 0.48139,-2.2001 a 3.4491,3.4491 0 0 1 1.3926,-1.4775 q 0.91019,-0.5224 2.1774,-0.5224 a 4.3411,4.3411 0 0 1 1.4406,0.2296 3.7722,3.7722 0 0 1 1.1125,0.5926 2.855,2.855 0 0 1 0.69629,0.7742 q 0.24019,0.4111 0.2407,0.7666 a 0.80906,0.80906 0 0 1 -0.27053,0.6149 0.92789,0.92789 0 0 1 -0.65736,0.2528 0.6609,0.6609 0 0 1 -0.41869,-0.13 2.0262,2.0262 0 0 1 -0.37419,-0.4181 q -0.37014,-0.5628 -0.77416,-0.8445 -0.40403,-0.2816 -1.0255,-0.2816 -0.89654,0 -1.4447,0.6998 -0.54816,0.6998 -0.54814,1.9149 a 3.6913,3.6913 0 0 0 0.14108,1.0483 2.3766,2.3766 0 0 0 0.40706,0.8146 1.7415,1.7415 0 0 0 0.64472,0.5112 1.9599,1.9599 0 0 0 0.82928,0.174 q 0.6068,0 1.0406,-0.2812 0.43386,-0.2811 0.76659,-0.8596 a 1.9776,1.9776 0 0 1 0.39998,-0.533 0.75849,0.75849 0 0 1 0.52588,-0.1926 0.77922,0.77922 0 0 1 0.61489,0.2811 q 0.24625,0.2796 0.24575,0.5977 z"
               id="path1089" />
            <path
               class="cls-1"
               d="m 164.9,-1984.9 h -3.9553 a 2.68,2.68 0 0 0 0.27761,1.2135 1.8603,1.8603 0 0 0 1.7076,1.0594 2.4115,2.4115 0 0 0 0.66292,-0.086 2.1683,2.1683 0 0 0 0.58151,-0.2664 4.4685,4.4685 0 0 0 0.5183,-0.3889 q 0.23665,-0.2068 0.61489,-0.5628 0.15523,-0.1335 0.44447,-0.1335 a 0.73119,0.73119 0 0 1 0.50566,0.1704 q 0.19266,0.1709 0.19266,0.4814 0,0.2741 -0.21491,0.6407 a 2.5602,2.5602 0 0 1 -0.64825,0.7039 3.6944,3.6944 0 0 1 -1.0887,0.5592 q -0.65736,0.222 -1.5074,0.222 -1.9488,0 -3.0294,-1.1124 -1.0806,-1.1125 -1.0816,-3.0148 a 5.0374,5.0374 0 0 1 0.26648,-1.6631 3.6797,3.6797 0 0 1 0.77771,-1.3147 3.3768,3.3768 0 0 1 1.2596,-0.8404 4.5166,4.5166 0 0 1 1.6591,-0.2928 q 1.1848,0 2.0333,0.5001 0.8485,0.5001 1.2702,1.2924 a 3.396,3.396 0 0 1 0.42223,1.6146 q 0,0.7631 -0.4369,0.9891 -0.43689,0.226 -1.2318,0.2286 z m -3.9553,-1.1484 h 3.6666 q -0.0743,-1.0366 -0.55926,-1.5519 -0.48493,-0.5152 -1.2778,-0.5147 -0.75545,0 -1.2409,0.5223 -0.48543,0.5224 -0.58859,1.5443 z"
               id="path1091" />
            <path
               class="cls-1"
               d="m 168.38,-1989.3 h 0.22198 v -1.2136 q 0,-0.4895 0.0263,-0.7671 a 1.1296,1.1296 0 0 1 0.14412,-0.4774 0.91019,0.91019 0 0 1 0.34081,-0.3372 0.96632,0.96632 0 0 1 0.49656,-0.1295 0.99767,0.99767 0 0 1 0.6963,0.2862 0.85356,0.85356 0 0 1 0.26294,0.4703 4.2364,4.2364 0 0 1 0.0556,0.7888 v 1.3779 h 0.73877 q 0.4293,0 0.65736,0.2023 a 0.67202,0.67202 0 0 1 0.22552,0.5219 q 0,0.408 -0.32211,0.5703 -0.3221,0.1624 -0.92182,0.1644 h -0.37772 v 3.7181 a 6.028,6.028 0 0 0 0.0334,0.7297 0.74079,0.74079 0 0 0 0.17799,0.4146 q 0.14412,0.1593 0.47027,0.1593 a 2.5106,2.5106 0 0 0 0.48139,-0.063 2.503,2.503 0 0 1 0.47431,-0.063 0.61033,0.61033 0 0 1 0.44043,0.1962 0.65736,0.65736 0 0 1 0.19619,0.4854 q 0,0.4885 -0.53296,0.7479 -0.53297,0.2594 -1.5332,0.2594 -0.94862,0 -1.4371,-0.3186 a 1.477,1.477 0 0 1 -0.64067,-0.8813 q -0.1517,-0.5628 -0.1517,-1.5039 v -3.8809 h -0.26648 q -0.43689,0 -0.66646,-0.2078 a 0.67708,0.67708 0 0 1 -0.22957,-0.5259 0.6518,0.6518 0 0 1 0.24069,-0.5219 q 0.23968,-0.2017 0.69883,-0.2017 z"
               id="path1093" />
            <path
               class="cls-1"
               d="m 175.61,-1991.3 v 2.9996 a 4.333,4.333 0 0 1 0.75242,-0.7034 2.7083,2.7083 0 0 1 0.80906,-0.3889 3.3975,3.3975 0 0 1 0.9557,-0.1299 q 0.76962,0 1.3653,0.3261 a 2.5283,2.5283 0 0 1 1.2257,1.7592 6.4376,6.4376 0 0 1 0.0738,1.0331 v 3.8739 q 0,0.6067 -0.2776,0.9187 -0.27761,0.312 -0.73726,0.311 -0.99969,0 -0.99969,-1.2297 v -3.4143 q 0,-0.9708 -0.28873,-1.4927 -0.28874,-0.5218 -1.0963,-0.5223 a 1.6459,1.6459 0 0 0 -0.97441,0.3074 1.8497,1.8497 0 0 0 -0.64775,0.8409 q -0.16282,0.4511 -0.16333,1.607 v 2.674 q 0,0.6002 -0.27002,0.9152 -0.27002,0.315 -0.75192,0.3145 -0.99969,0 -1.0002,-1.2297 v -8.7697 q 0,-0.6154 0.26294,-0.9224 0.26294,-0.3069 0.73725,-0.3074 0.48139,0 0.75192,0.311 0.27053,0.311 0.27306,0.9188 z"
               id="path1095" />
            <path
               class="cls-1"
               d="m 188.44,-1984.9 h -3.9553 a 2.68,2.68 0 0 0 0.27811,1.2135 1.8588,1.8588 0 0 0 1.7071,1.0594 2.4085,2.4085 0 0 0 0.66292,-0.086 2.1541,2.1541 0 0 0 0.58151,-0.2664 4.4255,4.4255 0 0 0 0.51831,-0.3889 q 0.23715,-0.2068 0.61488,-0.5628 0.15575,-0.1335 0.44448,-0.1335 a 0.73119,0.73119 0 0 1 0.50566,0.1704 q 0.19266,0.1709 0.19266,0.4814 0,0.2741 -0.21491,0.6407 a 2.5445,2.5445 0 0 1 -0.64826,0.7039 3.6944,3.6944 0 0 1 -1.0887,0.5592 q -0.65736,0.222 -1.5074,0.222 -1.9478,0 -3.0294,-1.1124 -1.0816,-1.1125 -1.0816,-3.0148 a 5.0242,5.0242 0 0 1 0.26699,-1.6631 3.6655,3.6655 0 0 1 0.77771,-1.3147 3.3748,3.3748 0 0 1 1.2591,-0.8404 4.5166,4.5166 0 0 1 1.6591,-0.2928 q 1.1858,0 2.0333,0.5001 0.8475,0.5001 1.2702,1.2924 a 3.396,3.396 0 0 1 0.42223,1.6146 q 0,0.7631 -0.43689,0.9891 -0.43689,0.226 -1.2318,0.2286 z m -3.9553,-1.1484 h 3.6666 q -0.0743,-1.0366 -0.55927,-1.5519 -0.48492,-0.5152 -1.2778,-0.5147 -0.75546,0 -1.2404,0.5223 -0.48493,0.5224 -0.58909,1.5443 z"
               id="path1097" />
            <path
               class="cls-1"
               d="m 193.82,-1984.2 v 1.6884 q 0,0.6153 -0.28874,0.9223 a 0.96076,0.96076 0 0 1 -0.73321,0.3074 0.92536,0.92536 0 0 1 -0.71854,-0.311 q -0.28165,-0.3109 -0.28165,-0.9187 v -5.6291 q 0,-1.3653 0.98502,-1.3653 0.50567,0 0.72613,0.3186 0.22047,0.3186 0.24424,0.9411 0.36357,-0.6225 0.74484,-0.9411 0.38127,-0.3186 1.0184,-0.3186 a 2.6072,2.6072 0 0 1 1.2368,0.3186 q 0.59971,0.3186 0.60022,0.8445 a 0.804,0.804 0 0 1 -0.25587,0.6113 q -0.25536,0.2402 -0.55168,0.2407 -0.11175,0 -0.53701,-0.137 a 2.4929,2.4929 0 0 0 -0.75192,-0.1371 q -0.44447,0 -0.72562,0.2332 -0.28115,0.2331 -0.4374,0.6927 a 4.8265,4.8265 0 0 0 -0.2149,1.0922 q -0.0592,0.6351 -0.0592,1.5469 z"
               id="path1099" />
          </g>
        </g>
      </g>
    </g>
  </g>
  <g
     style="fill-rule:evenodd"
     id="g1245"
     transform="matrix(0.2217201,0,0,0.2217201,474.33869,46.222371)">
    <g
       id="g1167"
       transform="translate(336.31,-189.27)">
      <rect
         style="fill:#ff0000;stroke-width:0.22972"
         id="rect1155"
         height="66.667"
         width="80"
         y="357.97"
         x="-78.686996" />
      <g
         style="fill:#660080"
         id="g1165">
        <rect
           style="stroke-width:0.066313"
           id="rect1157"
           height="66.667"
           width="6.6666999"
           y="357.97"
           x="-39.487" />
        <rect
           style="stroke-width:0.032551"
           id="rect1159"
           ry="3.3333001"
           height="16.063999"
           width="6.6666999"
           y="203.89999"
           x="-289.82001"
           transform="rotate(-47.052)" />
        <rect
           style="stroke-width:0.037394"
           id="rect1161"
           ry="3.8190999"
           height="18.403999"
           width="7.6788998"
           y="279.53"
           x="225.3"
           transform="matrix(0.75672,0.65374,-0.70813,0.70608,0,0)" />
        <rect
           style="stroke-width:0.072642"
           id="rect1163"
           height="6.6666999"
           width="80"
           y="387.29001"
           x="-78.686996" />
      </g>
    </g>
    <g
       style="stroke-width:0.265"
       id="g1177">
      <ellipse
         style="fill:#ff0000"
         id="ellipse1169"
         ry="10.961"
         rx="11.339"
         cy="67.568001"
         cx="68.792" />
      <ellipse
         style="fill:#ffff00"
         id="ellipse1171"
         ry="10.583"
         rx="13.229"
         cy="71.725998"
         cx="150.06" />
      <ellipse
         style="fill:#ffff00"
         id="ellipse1173"
         ry="10.583"
         rx="13.229"
         cy="163.2"
         cx="23.812" />
      <ellipse
         style="fill:#ff0000"
         id="ellipse1175"
         ry="10.583"
         rx="13.229"
         cy="178.32001"
         cx="187.10001" />
    </g>
    <g
       id="g1191"
       transform="matrix(0.83333,0,0,0.83333,116.31,224.54)">
      <rect
         style="fill:#ffcc00;stroke-width:0.34457"
         id="rect1179"
         height="100"
         width="120"
         y="-79.890999"
         x="-222.91" />
      <g
         style="fill:#2a2aff"
         id="g1189">
        <rect
           style="stroke-width:0.09947"
           id="rect1181"
           height="100"
           width="10"
           y="-79.890999"
           x="-164.11" />
        <rect
           style="stroke-width:0.048827"
           id="rect1183"
           ry="5"
           height="24.094999"
           width="10"
           y="-191.19"
           x="-54.667"
           transform="rotate(-47.052)" />
        <rect
           style="stroke-width:0.056091"
           id="rect1185"
           ry="5.7286"
           height="27.607"
           width="11.518"
           y="19.972"
           x="-174.32001"
           transform="matrix(0.75672,0.65374,-0.70813,0.70608,0,0)" />
        <rect
           style="stroke-width:0.10896"
           id="rect1187"
           height="10"
           width="120"
           y="-35.91"
           x="-222.91" />
      </g>
    </g>
    <g
       id="g1215"
       transform="matrix(0.84374,0,0,1,21.237,-2.1167)">
      <g
         style="fill:#008000"
         id="g1199">
        <path
           style="stroke-width:0.16298"
           id="path1193"
           d="m 257.02,-17.798 c 0,0 6.7744,13.402 -136.11,26.013 C -15.49,20.254 -17.86,4.5084 -17.86,4.5084 l 121.01,-153.96 z" />
        <path
           style="stroke-width:0.20518"
           id="path1195"
           d="m 299.47,78.862 c 0,0 8.5363,16.867 -171.33,32.856 -171.71,15.264 -174.71,-4.5563 -174.71,-4.5563 l 152.25,-193.92 z" />
        <path
           style="stroke-width:0.25647"
           id="path1197"
           d="m 352.59,207.31 c 0,0 9.946,21.549 -215.39,31.368 -215.12,9.3735 -218.02,-15.552 -218.02,-15.552 l 198.4,-233.62 z" />
      </g>
      <g
         style="stroke-width:0.19707"
         id="g1211">
        <circle
           style="fill:#ff0000"
           id="circle1201"
           r="17.5"
           cy="3.0364001"
           cx="211" />
        <circle
           style="fill:#ffff00"
           id="circle1203"
           r="17.5"
           cy="18.003"
           cx="15.362" />
        <circle
           style="fill:#ffff00"
           id="circle1205"
           r="17.5"
           cy="196.53999"
           cx="-34.884998" />
        <circle
           style="fill:#ff0000"
           id="circle1207"
           r="17.5"
           cy="109.94"
           cx="81.644997" />
        <circle
           style="fill:#ffff00"
           id="circle1209"
           r="17.5"
           cy="111.01"
           cx="242.00999" />
      </g>
      <path
         style="fill:#ffcc00;stroke-width:0.265"
         id="path1213"
         d="m 71.089,-147.79 25.543,9.7863 22.542,-15.494 -1.4142,27.317 21.701,16.651 -26.417,7.0964 -9.1302,25.785 -14.912,-22.931 -27.344,-0.71549 17.2,-21.269 z"
         transform="matrix(1.0746,-0.44185,0.44185,1.0746,51.01,15.831)" />
    </g>
    <g
       id="g1229"
       transform="translate(25.081,-44.751)">
      <rect
         style="fill:#9955ff;stroke-width:0.22972"
         id="rect1217"
         height="66.667"
         width="80"
         y="263.47"
         x="16.563" />
      <g
         style="fill:#ffffff"
         id="g1227">
        <rect
           style="stroke-width:0.066313"
           id="rect1219"
           height="66.667"
           width="6.6666999"
           y="263.47"
           x="55.763" />
        <rect
           style="stroke-width:0.032551"
           id="rect1221"
           ry="3.3333001"
           height="16.063999"
           width="6.6666999"
           y="209.24001"
           x="-155.75"
           transform="rotate(-47.052)" />
        <rect
           style="stroke-width:0.037394"
           id="rect1223"
           ry="3.8190999"
           height="18.403999"
           width="7.6788998"
           y="145.38"
           x="225.64"
           transform="matrix(0.75672,0.65374,-0.70813,0.70608,0,0)" />
        <rect
           style="stroke-width:0.072642"
           id="rect1225"
           height="6.6666999"
           width="80"
           y="292.79999"
           x="16.563" />
      </g>
    </g>
    <g
       id="g1243"
       transform="translate(-20.31,-53.227)">
      <rect
         style="fill:#ff6600;stroke-width:0.28714"
         id="rect1231"
         height="83.333"
         width="100"
         y="246.81"
         x="140.58" />
      <g
         style="fill:#ffff00"
         id="g1241">
        <rect
           style="stroke-width:0.082891"
           id="rect1233"
           height="83.333"
           width="8.3332996"
           y="246.81"
           x="189.58" />
        <rect
           style="stroke-width:0.040689"
           id="rect1235"
           ry="4.1666999"
           height="20.08"
           width="8.3332996"
           y="293.06"
           x="-52.603001"
           transform="rotate(-47.052)" />
        <rect
           style="stroke-width:0.046743"
           id="rect1237"
           ry="4.7737999"
           height="23.006001"
           width="9.5986996"
           y="40.516998"
           x="308.32001"
           transform="matrix(0.75672,0.65374,-0.70813,0.70608,0,0)" />
        <rect
           style="stroke-width:0.090803"
           id="rect1239"
           height="8.3332996"
           width="100"
           y="283.45999"
           x="140.58" />
      </g>
    </g>
  </g>
</svg>
