<?xml version="1.0" encoding="UTF-8"?>
<!-- Created with Inkscape (http://www.inkscape.org/) -->
<svg width="1448.9mm" height="358.83mm" version="1.1" viewBox="0 0 1448.876 358.83298" xmlns="http://www.w3.org/2000/svg" xmlns:cc="http://creativecommons.org/ns#" xmlns:dc="http://purl.org/dc/elements/1.1/" xmlns:rdf="http://www.w3.org/1999/02/22-rdf-syntax-ns#">
 <defs>
  <style>.cls-1{fill:#d2d1d1;}</style>
 </defs>
 <metadata>
  <rdf:RDF>
   <cc:Work rdf:about="">
    <dc:format>image/svg+xml</dc:format>
    <dc:type rdf:resource="http://purl.org/dc/dcmitype/StillImage"/>
    <dc:title/>
   </cc:Work>
  </rdf:RDF>
 </metadata>
 <g transform="translate(1566.8 119.18)">
  <text x="43.845242" y="224.0506" fill="#000000" font-family="Chalkboard" font-size="50.8px" font-weight="bold" letter-spacing="0px" stroke-width=".26458" word-spacing="0px" style="line-height:1.25" xml:space="preserve"><tspan x="43.845242" y="269.82281" font-family="Chalkboard" font-weight="bold" stroke-width=".26458"/></text>
  <path d="m-330.03 191.77c-171.82-203.3 52.219-310.49 52.219-310.49" fill="none"/>
  <g transform="matrix(.88176 0 0 .88176 -1572 -107.55)" fill="#d2d1d1" data-name="1">
   <path class="cls-1" d="m558 264.41v-4a101.56 101.56 0 0 1 -15.89 15 59.76 59.76 0 0 1 -17 8.79 63.82 63.82 0 0 1 -20 3 59 59 0 0 1 -26.59 -6.08 62 62 0 0 1 -21.16 -17.36 78.93 78.93 0 0 1 -13.55 -26.51 113.08 113.08 0 0 1 -4.62 -33q0-37.5 18.31-58.45t48.25-20.8q17.28 0 29.15 5.93t23.1 18.2v-59q0-12.3 4.91-18.6t14-6.3q9.07 0 14 5.79t4.92 16.98v176.41q0 11.43-5.27 17.14a17.7 17.7 0 0 1 -13.62 5.71 17.45 17.45 0 0 1 -13.55 -5.93q-5.39-5.94-5.39-16.92zm-78.66-58.74q0 16.26 5.05 27.68t13.84 17.22a34.18 34.18 0 0 0 19.19 5.78 35.42 35.42 0 0 0 19.27 -5.49q8.71-5.49 13.91-16.85t5.2-28.34q0-16-5.2-27.47t-14.06-17.57a33.55 33.55 0 0 0 -19.41 -6.08 32.75 32.75 0 0 0 -19.63 6.22q-8.64 6.22-13.4 17.87t-4.72 27.03z"/>
   <path class="cls-1" d="m656.18 106.06a21.11 21.11 0 0 1 -14.28 -5.13q-5.9-5.11-5.9-14.5a18 18 0 0 1 6.08 -14 20.42 20.42 0 0 1 14.1 -5.43 21 21 0 0 1 13.77 5q6 5 6 14.5 0 9.22-5.86 14.43a20.27 20.27 0 0 1 -13.91 5.13zm19.82 41.31v115.57q0 12-5.71 18.17a18.94 18.94 0 0 1 -14.5 6.15 18.08 18.08 0 0 1 -14.29 -6.3q-5.49-6.3-5.49-18v-114.42q0-11.86 5.49-17.87a18.5 18.5 0 0 1 14.29 -6 19.18 19.18 0 0 1 14.5 6q5.71 6 5.71 16.7z"/>
   <path class="cls-1" d="m860.68 237.75q0 7.47-4.47 16a54.86 54.86 0 0 1 -13.62 16.18q-9.17 7.69-23.08 12.38a98 98 0 0 1 -31.34 4.69q-37.06 0-57.86-21.61t-20.8-57.93q0-24.62 9.52-43.51a68.21 68.21 0 0 1 27.54 -29.22q18-10.33 43.06-10.33a85.85 85.85 0 0 1 28.49 4.54 74.6 74.6 0 0 1 22 11.72 56.46 56.46 0 0 1 13.77 15.31q4.75 8.13 4.76 15.16a16 16 0 0 1 -5.35 12.16 18.35 18.35 0 0 1 -13 5 13.07 13.07 0 0 1 -8.28 -2.57 40.07 40.07 0 0 1 -7.4 -8.27q-7.32-11.13-15.31-16.7t-20.28-5.57q-17.73 0-28.57 13.84t-10.84 37.87a73 73 0 0 0 2.79 20.73 47 47 0 0 0 8.05 16.11 34.44 34.44 0 0 0 12.75 10.11 38.76 38.76 0 0 0 16.4 3.44q12 0 20.58-5.56t15.16-17a39.11 39.11 0 0 1 7.91 -10.54 15 15 0 0 1 10.4 -3.81 15.41 15.41 0 0 1 12.16 5.56q4.87 5.53 4.86 11.82z"/>
   <path class="cls-1" d="m1007.2 215.78h-78.22a53 53 0 0 0 5.49 24 36.79 36.79 0 0 0 33.77 20.95 47.69 47.69 0 0 0 13.11 -1.69 42.88 42.88 0 0 0 11.5 -5.27 88.37 88.37 0 0 0 10.25 -7.69q4.68-4.09 12.16-11.13 3.07-2.64 8.79-2.64a14.46 14.46 0 0 1 10 3.37q3.81 3.38 3.81 9.52 0 5.42-4.25 12.67a50.63 50.63 0 0 1 -12.82 13.92 73.06 73.06 0 0 1 -21.53 11.06q-13 4.39-29.81 4.39-38.54 0-59.91-22t-21.39-59.62a99.62 99.62 0 0 1 5.27 -32.89 72.77 72.77 0 0 1 15.38 -26 66.78 66.78 0 0 1 24.91 -16.62 89.32 89.32 0 0 1 32.81 -5.79q23.43 0 40.21 9.89t25.12 25.56a67.16 67.16 0 0 1 8.35 31.93q0 15.09-8.64 19.56t-24.36 4.52zm-78.22-22.71h72.51q-1.47-20.5-11.06-30.69t-25.27-10.18q-14.94 0-24.54 10.33t-11.64 30.54z"/>
   <path class="cls-1" d="m1076 128.18h4.39v-24q0-9.68 0.52-15.17a22.34 22.34 0 0 1 2.85 -9.44 18 18 0 0 1 6.74 -6.67 19.11 19.11 0 0 1 9.82 -2.56 19.73 19.73 0 0 1 13.77 5.66 16.88 16.88 0 0 1 5.2 9.3 83.78 83.78 0 0 1 1.1 15.6v27.25h14.61q8.49 0 13 4a13.29 13.29 0 0 1 4.46 10.32q0 8.07-6.37 11.28t-18.23 3.25h-7.47v73.53a119.21 119.21 0 0 0 0.66 14.43 14.65 14.65 0 0 0 3.52 8.2q2.85 3.15 9.3 3.15a49.65 49.65 0 0 0 9.52 -1.24 49.5 49.5 0 0 1 9.38 -1.25 12.07 12.07 0 0 1 8.71 3.88 13 13 0 0 1 3.88 9.6q0 9.66-10.54 14.79t-30.32 5.13q-18.76 0-28.42-6.3a29.21 29.21 0 0 1 -12.67 -17.43q-3-11.13-3-29.74v-76.75h-5.27q-8.64 0-13.18-4.11a13.39 13.39 0 0 1 -4.54 -10.4 12.89 12.89 0 0 1 4.76 -10.32q4.74-3.99 13.82-3.99z"/>
   <path class="cls-1" d="m1219.1 89.51v59.32a85.69 85.69 0 0 1 14.88 -13.91 53.56 53.56 0 0 1 16 -7.69 67.19 67.19 0 0 1 18.9 -2.57q15.22 0 27 6.45a50 50 0 0 1 24.24 34.79 127.31 127.31 0 0 1 1.46 20.43v76.61q0 12-5.49 18.17t-14.58 6.15q-19.77 0-19.77-24.32v-67.52q0-19.2-5.71-29.52t-21.68-10.33a32.55 32.55 0 0 0 -19.27 6.08 36.58 36.58 0 0 0 -12.81 16.63q-3.22 8.92-3.23 31.78v52.88q0 11.87-5.34 18.1t-14.87 6.22q-19.77 0-19.78-24.32v-173.43q0-12.17 5.2-18.24t14.58-6.08q9.52 0 14.87 6.15t5.4 18.17z"/>
   <path class="cls-1" d="m1472.8 215.78h-78.22a53 53 0 0 0 5.5 24 36.76 36.76 0 0 0 33.76 20.95 47.63 47.63 0 0 0 13.11 -1.69 42.6 42.6 0 0 0 11.5 -5.27 87.52 87.52 0 0 0 10.25 -7.69q4.69-4.09 12.16-11.13 3.08-2.64 8.79-2.64a14.46 14.46 0 0 1 10 3.37q3.81 3.38 3.81 9.52 0 5.42-4.25 12.67a50.32 50.32 0 0 1 -12.82 13.92 73.06 73.06 0 0 1 -21.53 11.06q-13 4.39-29.81 4.39-38.52 0-59.91-22t-21.39-59.62a99.36 99.36 0 0 1 5.28 -32.89 72.49 72.49 0 0 1 15.38 -26 66.74 66.74 0 0 1 24.9 -16.62 89.32 89.32 0 0 1 32.81 -5.79q23.45 0 40.21 9.89t25.12 25.56a67.16 67.16 0 0 1 8.35 31.93q0 15.09-8.64 19.56t-24.36 4.52zm-78.22-22.71h72.51q-1.47-20.5-11.06-30.69t-25.27-10.18q-14.94 0-24.53 10.33t-11.65 30.54z"/>
   <path class="cls-1" d="m1579.2 229.55v33.39q0 12.17-5.71 18.24a19 19 0 0 1 -14.5 6.08 18.3 18.3 0 0 1 -14.21 -6.15q-5.57-6.15-5.57-18.17v-111.32q0-27 19.48-27 10 0 14.36 6.3t4.83 18.61q7.19-12.31 14.73-18.61t20.14-6.3a51.56 51.56 0 0 1 24.46 6.3q11.86 6.3 11.87 16.7a15.9 15.9 0 0 1 -5.06 12.09q-5.05 4.75-10.91 4.76-2.21 0-10.62-2.71a49.3 49.3 0 0 0 -14.87 -2.71q-8.79 0-14.35 4.61t-8.65 13.7a95.45 95.45 0 0 0 -4.25 21.6q-1.17 12.56-1.17 30.59z"/>
  </g>
  <g transform="matrix(.81273 0 0 .81273 -1177.7 18.001)">
   <g transform="matrix(-.32772 1.6562 -1.07 -.4345 79.539 371.09)" fill="#fff" stroke="#fff" stroke-width="7.9156" aria-label="2019">
    <path d="m-68.896 378.35-12.749-17.19q-1.905-2.5686-1.8526-4.7004 0.05244-2.1317 1.8637-3.475 1.6136-1.1968 3.5393-0.94042 1.9012 0.2234 3.5132 2.3969l17.976 24.237q1.8318 2.4698 1.5074 4.8543-0.35732 2.4089-2.2015 3.7766-1.1855 0.87925-3.7879 1.4311-2.6353 0.57627-4.5365 0.35287-7.7929-1.0094-13.633-2.1396-5.8735-1.1057-8.0179-1.8634-3.9127-1.2838-7.1416-1.6455-3.2862-0.37023-5.9789 0.19753-2.75 0.55925-4.693 2.0002-2.1076 1.5631-2.997 3.8052-0.94679 2.2335-0.57442 4.6628 0.34795 2.3963 1.8622 4.438 3.1995 4.314 8.8184 3.9751 0.7382-0.037 3.5308-0.88306 2.7681-0.87896 4.6864-0.77027 1.8938 0.0758 3.286 1.9528 1.2212 1.6466 0.94042 3.5393-0.28076 1.8927-2.1578 3.2848-2.2723 1.6852-5.4992 2.4961-3.227 0.8109-6.7256 0.29193-3.5231-0.55191-7.0373-2.7438-3.5716-2.2004-6.6734-6.3826-3.7368-5.0385-4.7938-9.7674-0.65585-3.0868-0.10615-6.1998 0.54971-3.1131 2.2783-5.8754 1.6713-2.7709 4.2728-4.7003 4.0835-3.0285 8.9567-3.478 4.8159-0.45797 8.289 0.23307 3.4402 0.71546 11.179 2.684 7.7141 1.9356 11.321 2.119 1.4753 0.13091 3.3373 0.0261z"/>
    <path d="m-127.25 320.33q5.9804-3.0735 10.658-4.5556 4.6778-1.4821 9.1905-1.3121 5.5774 0.26824 9.9352 3.0071 4.3578 2.7389 6.8317 7.5524 2.8486 5.5428 1.9802 11.567-0.88714 5.9876-5.2867 11.061-2.4457 2.686-5.8112 5.107-3.4207 2.4034-7.6872 4.5961-5.5063 2.8299-10.219 4.5141-4.7122 1.6842-8.5219 2.0748-6.3568 0.54722-11.191-2.1314-4.8891-2.6963-7.8127-8.385-1.9303-3.756-2.2647-7.4563-0.37087-3.6816 0.81873-7.1971 1.1344-3.5332 3.774-6.9181 4.5926-5.8637 15.605-11.523zm4.4057 10.366q-6.6732 3.4296-10.491 6.4058-3.8542 2.995-5.0312 5.9969-1.2134 3.0207 0.51076 6.3755 2.4738 4.8135 8.2983 4.2172 5.8057-0.6328 15.907-5.8241 6.8556-3.5233 10.819-6.5745 3.9636-3.0512 5.25-6.1093 1.2499-3.0394-0.41807-6.2849-1.7242-3.3548-5.0325-4.0516-3.3084-0.6968-8.0413 0.7676-4.733 1.4644-11.771 5.0814z"/>
    <path d="m-114.45 281.62-36.252 8.8205q10.23 8.2286 11.083 11.734 0.4071 1.6732-0.58767 3.3077-1.0443 1.6044-2.7972 2.0308-2.0317 0.49434-3.298-0.54784-1.2663-1.0422-3.5652-3.9007-3.4436-4.2679-6.6512-6.5255-3.2173-2.2975-6.8675-3.7724-3.6501-1.4749-4.532-1.9776-0.88186-0.50277-1.3374-2.3751-0.51372-2.1114 0.80945-3.7836t4.1915-2.3701l45.614-11.098q8.0074-1.9483 9.3353 3.5095 0.59126 2.4301-0.68344 4.3015-1.2747 1.8714-4.4617 2.6468z"/>
    <path d="m-139.91 218.41q2.9877 2.9365 4.3729 6.4112 1.3474 3.4308 1.0453 7.4785-0.28684 3.8433-2.009 7.0861-1.76 3.1989-4.6006 5.4537-2.8785 2.2109-6.5333 3.2538-3.6956 1.0398-7.6207 0.74687-4.2113-0.31431-7.8629-2.067-3.6926-1.7557-6.2684-4.7026t-3.8487-6.8244q-1.2699-3.9184-0.9281-8.4976 0.39365-5.2743 2.6235-9.2604t6.1202-6.5326q3.8494-2.5496 9.5228-3.6473t12.706-0.57291q7.8501 0.5859 13.741 2.629 5.8504 2.0401 9.7101 5.4117 3.8219 3.3277 5.508 7.7293 1.6452 4.3986 1.2424 9.7956-0.3967 5.3152-2.6931 9.0907-2.3372 3.7725-5.4745 5.594-3.1782 1.8185-5.9584 1.611-1.7172-0.12817-2.9719-1.4963t-1.1082-3.3307q0.13427-1.799 1.2632-3.1537 1.0881-1.3578 3.1464-1.9442 2.5203-0.7164 4.1887-2.6887 1.6275-1.9753 1.8228-4.592 0.17393-2.3305-0.85613-4.5042-1.0301-2.1737-3.0872-3.8073-4.1551-3.2703-15.192-4.6697zm-12.581 7e-3q-2.7802-0.20751-5.1687 0.39539-2.4263 0.55896-4.2473 1.8209-1.8179 1.2211-2.9426 3.0695-1.1216 1.8075-1.2895 4.0563-0.2899 3.8842 2.8614 6.8329 3.1104 2.9456 8.5891 3.3546 5.4378 0.40585 8.8692-2.0516 3.4314-2.4574 3.7396-6.5869 0.18919-2.5349-0.94828-4.9222-1.1753-2.4312-3.6034-4.0514-2.4251-1.6611-5.8595-1.9174z"/>
   </g>
   <g transform="translate(-304.02 -140.32)" fill="#3498db" fill-rule="evenodd">
    <rect transform="rotate(-76.783)" x="-195.69" y="-119.24" width="17.387" height="124.73" rx="8.6935" ry="16.03" stroke-width=".265"/>
    <rect transform="rotate(103.22)" x="127.16" y="-401.12" width="17.387" height="124.73" rx="8.6935" ry="16.03" stroke-width=".265"/>
    <g>
     <rect transform="matrix(.87142 -.49054 .56923 .82217 0 0)" x="-69.267" y=".89395" width="13.35" height="91.532" rx="6.6752" ry="11.764" stroke-width=".19892"/>
     <rect transform="matrix(.51027 .86001 -.85862 .51261 0 0)" x="171.5" y="-255.35" width="20.581" height="147.43" rx="10.29" ry="18.947" stroke-width=".31345"/>
     <rect transform="rotate(-53.034)" x="-150.11" y="-64.541" width="17.387" height="124.73" rx="8.6935" ry="16.03" stroke-width=".265"/>
     <rect transform="rotate(20.606)" x="145.81" y="-80.122" width="17.387" height="124.73" rx="8.6935" ry="16.03" stroke-width=".265"/>
     <rect transform="matrix(.99263 .12119 -.2425 .97015 0 0)" x="90.944" y="-25.01" width="17.255" height="88.515" rx="8.6273" ry="11.376" stroke-width=".22239"/>
     <rect transform="rotate(-9.0066)" x="9.1465" y="-25.935" width="17.387" height="124.73" rx="8.6935" ry="16.03" stroke-width=".265"/>
     <rect transform="matrix(.063554 -.99798 .99084 .13503 0 0)" x="-123" y="230.49" width="17.347" height="85.683" rx="8.6735" ry="11.012" stroke-width=".21938"/>
     <rect transform="matrix(-.84632 .53268 -.52646 -.8502 0 0)" x="-13.4" y="-425.5" width="14.851" height="106.92" rx="7.4253" ry="13.741" stroke-width=".22675"/>
     <rect transform="matrix(-.48298 -.87563 .84142 -.54038 0 0)" x="-216.35" y="-250.71" width="13.542" height="93.691" rx="6.7708" ry="12.041" stroke-width=".20269"/>
     <g stroke-width=".265">
      <rect transform="rotate(126.97)" x="51.191" y="-445.58" width="17.387" height="124.73" rx="8.6935" ry="16.03"/>
      <rect transform="rotate(200.61)" x="-118.69" y="-383.71" width="17.387" height="124.73" rx="8.6935" ry="16.03"/>
      <rect transform="rotate(189.91)" x="-134.92" y="-397.18" width="17.387" height="124.73" rx="8.6935" ry="16.03"/>
      <rect transform="rotate(170.99)" x="-87.088" y="-413.15" width="17.387" height="124.73" rx="8.6935" ry="16.03"/>
      <rect transform="rotate(84.41)" x="207.75" y="71.901" width="17.387" height="124.73" rx="8.6935" ry="16.03"/>
     </g>
    </g>
    <circle cx="202.05" cy="256.25" r="10"/>
    <circle cx="85.655" cy="272.73" r="10"/>
    <circle cx="58.117" cy="88.731" r="10"/>
    <circle cx="254.09" cy="111.22" r="10"/>
    <circle cx="-21.184" cy="128.88" r="10"/>
   </g>
   <g transform="translate(-304.02 -140.32)" fill="none" stroke="#64bc0c" stroke-linecap="round" stroke-width="13.189">
    <path d="m361.43 105.54c-11.468-5.965-25.423-6.9428-37.611-2.6352-12.187 4.3077-22.429 13.838-27.601 25.684-3.2284 7.3945-4.5206 15.565-4.2246 23.629 0.21508 5.8586 1.2637 11.715 3.4293 17.163 2.1656 5.448 5.4708 10.482 9.85 14.379 4.3792 3.8977 9.8528 6.6253 15.659 7.4354s11.926-0.35904 16.85-3.5402c3.976-2.5684 7.1069-6.3978 8.9253-10.768 1.8184-4.3702 2.3303-9.2603 1.5538-13.93-0.77648-4.6693-2.8279-9.1076-5.8044-12.788s-6.8651-6.6026-11.188-8.5299c-8.1345-3.6263-17.68-3.6249-26.069-0.63503-8.3893 2.9898-15.625 8.8301-20.907 16.001-5.2816 7.1711-8.6707 15.629-10.521 24.341-1.8499 8.7119-2.1993 17.69-1.7696 26.585 0.33483 6.9319 1.1493 13.891 3.2516 20.504 2.1024 6.6139 5.5526 12.899 10.608 17.654 5.0549 4.7552 11.802 7.8795 18.742 7.8657 3.47-7e-3 6.948-0.7948 10.036-2.3776 3.088-1.5828 5.7756-3.9671 7.6285-6.901 1.9782-3.1323 2.9778-6.8488 2.9936-10.553 0.0158-3.7046-0.93545-7.3911-2.6022-10.7-3.3334-6.6172-9.4173-11.568-16.162-14.635-8.754-3.9808-18.821-5.0073-28.198-2.8754-9.3774 2.132-18.011 7.4099-24.183 14.784s-9.8479 16.802-10.296 26.408c-0.44765 9.6062 2.3352 19.335 7.795 27.251"/>
    <path d="m-70.67 290.57c12.049-4.6802 21.993-14.521 26.798-26.521 4.8055-12 4.4028-25.984-1.0853-37.687-3.4257-7.3052-8.7124-13.668-14.966-18.766-4.5439-3.7044-9.6362-6.7809-15.159-8.7488s-11.486-2.8059-17.304-2.0875c-5.8184 0.71842-11.48 3.0312-15.92 6.8594-4.4402 3.8282-7.5999 9.1977-8.4592 14.997-0.69381 4.6823 0.11745 9.5617 2.2011 13.812 2.0837 4.2501 5.4202 7.8616 9.441 10.359 4.0208 2.4977 8.7092 3.8851 13.439 4.0773 4.7295 0.1922 9.4912-0.8013 13.792-2.7779 8.0925-3.7191 14.39-10.892 17.68-19.169 3.2894-8.2765 3.6761-17.567 1.773-26.268-1.903-8.7005-6.0213-16.828-11.346-23.967-5.3252-7.1388-11.84-13.326-18.808-18.873-5.4294-4.3226-11.195-8.3026-17.552-11.087-6.3568-2.7847-13.356-4.3397-20.264-3.6794-6.9085 0.66029-13.708 3.6683-18.278 8.8919-2.2846 2.6118-3.9876 5.745-4.836 9.1097-0.8484 3.3647-0.83039 6.9574 0.15133 10.286 1.0481 3.5533 3.181 6.7568 5.9542 9.2132 2.7732 2.4564 6.1708 4.1744 9.7565 5.1053 7.1716 1.8619 14.906 0.55758 21.661-2.4863 8.7677-3.9507 16.182-10.837 20.768-19.29 4.586-8.4527 6.3172-18.422 4.8494-27.926s-6.1262-18.487-13.049-25.162c-6.9225-6.6753-16.069-11.004-25.62-12.126"/>
   </g>
  </g>
 </g>
</svg>
