<?xml version="1.0" encoding="UTF-8"?>
<!-- Created with Inkscape (http://www.inkscape.org/) -->
<svg width="2443mm" height="548.61mm" version="1.1" viewBox="0 0 2442.96 548.61047" xmlns="http://www.w3.org/2000/svg" xmlns:cc="http://creativecommons.org/ns#" xmlns:dc="http://purl.org/dc/elements/1.1/" xmlns:rdf="http://www.w3.org/1999/02/22-rdf-syntax-ns#">
 <defs>
  <style>.cls-1{fill:#d2d1d1;}</style>
 </defs>
 <metadata>
  <rdf:RDF>
   <cc:Work rdf:about="">
    <dc:format>image/svg+xml</dc:format>
    <dc:type rdf:resource="http://purl.org/dc/dcmitype/StillImage"/>
    <dc:title/>
   </cc:Work>
  </rdf:RDF>
 </metadata>
 <g transform="translate(2105.3 161.55)">
  <g transform="matrix(1.2735 0 0 1.2735 -2105.3 -136.19)" data-name="2">
   <g fill="#d2d1d1" data-name="1">
    <path class="cls-1" d="m386.78 310.57-238.78 97.69a35.48 35.48 0 0 1 -46.22 -19.38l-99.14-242.34a35.46 35.46 0 0 1 19.36 -46.21l238.8-97.69a35.48 35.48 0 0 1 46.2 19.36l99.14 242.34a35.48 35.48 0 0 1 -19.36 46.23zm-360.4-199.57a24 24 0 0 0 -13.08 31.18l99.14 242.34a24 24 0 0 0 31.2 13.08l238.77-97.69a24 24 0 0 0 13.09 -31.19l-99.15-242.34a24 24 0 0 0 -31.19 -13.08z"/>
    <ellipse class="cls-1" transform="rotate(-22.25 204.39 205.44)" cx="204.4" cy="205.45" rx="40.02" ry="40.5"/>
    <ellipse class="cls-1" transform="rotate(-22.25 329.78 254.74)" cx="329.77" cy="254.73" rx="40.02" ry="40.5"/>
    <ellipse class="cls-1" transform="rotate(-22.25 259.44 82.366)" cx="259.43" cy="82.36" rx="40.02" ry="40.5"/>
    <ellipse class="cls-1" transform="rotate(-22.25 152.67 327.18)" cx="152.67" cy="327.18" rx="40.02" ry="40.5"/>
    <ellipse class="cls-1" transform="rotate(-22.25 82.326 154.81)" cx="82.33" cy="154.82" rx="40.02" ry="40.5"/>
    <path class="cls-1" d="m558 264.41v-4a101.56 101.56 0 0 1 -15.89 15 59.76 59.76 0 0 1 -17 8.79 63.82 63.82 0 0 1 -20 3 59 59 0 0 1 -26.59 -6.08 62 62 0 0 1 -21.16 -17.36 78.93 78.93 0 0 1 -13.55 -26.51 113.08 113.08 0 0 1 -4.62 -33q0-37.5 18.31-58.45t48.25-20.8q17.28 0 29.15 5.93t23.1 18.2v-59q0-12.3 4.91-18.6t14-6.3q9.07 0 14 5.79t4.92 16.98v176.41q0 11.43-5.27 17.14a17.7 17.7 0 0 1 -13.62 5.71 17.45 17.45 0 0 1 -13.55 -5.93q-5.39-5.94-5.39-16.92zm-78.66-58.74q0 16.26 5.05 27.68t13.84 17.22a34.18 34.18 0 0 0 19.19 5.78 35.42 35.42 0 0 0 19.27 -5.49q8.71-5.49 13.91-16.85t5.2-28.34q0-16-5.2-27.47t-14.06-17.57a33.55 33.55 0 0 0 -19.41 -6.08 32.75 32.75 0 0 0 -19.63 6.22q-8.64 6.22-13.4 17.87t-4.72 27.03z"/>
    <path class="cls-1" d="m656.18 106.06a21.11 21.11 0 0 1 -14.28 -5.13q-5.9-5.11-5.9-14.5a18 18 0 0 1 6.08 -14 20.42 20.42 0 0 1 14.1 -5.43 21 21 0 0 1 13.77 5q6 5 6 14.5 0 9.22-5.86 14.43a20.27 20.27 0 0 1 -13.91 5.13zm19.82 41.31v115.57q0 12-5.71 18.17a18.94 18.94 0 0 1 -14.5 6.15 18.08 18.08 0 0 1 -14.29 -6.3q-5.49-6.3-5.49-18v-114.42q0-11.86 5.49-17.87a18.5 18.5 0 0 1 14.29 -6 19.18 19.18 0 0 1 14.5 6q5.71 6 5.71 16.7z"/>
    <path class="cls-1" d="m860.68 237.75q0 7.47-4.47 16a54.86 54.86 0 0 1 -13.62 16.18q-9.17 7.69-23.08 12.38a98 98 0 0 1 -31.34 4.69q-37.06 0-57.86-21.61t-20.8-57.93q0-24.62 9.52-43.51a68.21 68.21 0 0 1 27.54 -29.22q18-10.33 43.06-10.33a85.85 85.85 0 0 1 28.49 4.54 74.6 74.6 0 0 1 22 11.72 56.46 56.46 0 0 1 13.77 15.31q4.75 8.13 4.76 15.16a16 16 0 0 1 -5.35 12.16 18.35 18.35 0 0 1 -13 5 13.07 13.07 0 0 1 -8.28 -2.57 40.07 40.07 0 0 1 -7.4 -8.27q-7.32-11.13-15.31-16.7t-20.28-5.57q-17.73 0-28.57 13.84t-10.84 37.87a73 73 0 0 0 2.79 20.73 47 47 0 0 0 8.05 16.11 34.44 34.44 0 0 0 12.75 10.11 38.76 38.76 0 0 0 16.4 3.44q12 0 20.58-5.56t15.16-17a39.11 39.11 0 0 1 7.91 -10.54 15 15 0 0 1 10.4 -3.81 15.41 15.41 0 0 1 12.16 5.56q4.87 5.53 4.86 11.82z"/>
    <path class="cls-1" d="m1007.2 215.78h-78.22a53 53 0 0 0 5.49 24 36.79 36.79 0 0 0 33.77 20.95 47.69 47.69 0 0 0 13.11 -1.69 42.88 42.88 0 0 0 11.5 -5.27 88.37 88.37 0 0 0 10.25 -7.69q4.68-4.09 12.16-11.13 3.07-2.64 8.79-2.64a14.46 14.46 0 0 1 10 3.37q3.81 3.38 3.81 9.52 0 5.42-4.25 12.67a50.63 50.63 0 0 1 -12.82 13.92 73.06 73.06 0 0 1 -21.53 11.06q-13 4.39-29.81 4.39-38.54 0-59.91-22t-21.39-59.62a99.62 99.62 0 0 1 5.27 -32.89 72.77 72.77 0 0 1 15.38 -26 66.78 66.78 0 0 1 24.91 -16.62 89.32 89.32 0 0 1 32.81 -5.79q23.43 0 40.21 9.89t25.12 25.56a67.16 67.16 0 0 1 8.35 31.93q0 15.09-8.64 19.56t-24.36 4.52zm-78.22-22.71h72.51q-1.47-20.5-11.06-30.69t-25.27-10.18q-14.94 0-24.54 10.33t-11.64 30.54z"/>
    <path class="cls-1" d="m1076 128.18h4.39v-24q0-9.68 0.52-15.17a22.34 22.34 0 0 1 2.85 -9.44 18 18 0 0 1 6.74 -6.67 19.11 19.11 0 0 1 9.82 -2.56 19.73 19.73 0 0 1 13.77 5.66 16.88 16.88 0 0 1 5.2 9.3 83.78 83.78 0 0 1 1.1 15.6v27.25h14.61q8.49 0 13 4a13.29 13.29 0 0 1 4.46 10.32q0 8.07-6.37 11.28t-18.23 3.25h-7.47v73.53a119.21 119.21 0 0 0 0.66 14.43 14.65 14.65 0 0 0 3.52 8.2q2.85 3.15 9.3 3.15a49.65 49.65 0 0 0 9.52 -1.24 49.5 49.5 0 0 1 9.38 -1.25 12.07 12.07 0 0 1 8.71 3.88 13 13 0 0 1 3.88 9.6q0 9.66-10.54 14.79t-30.32 5.13q-18.76 0-28.42-6.3a29.21 29.21 0 0 1 -12.67 -17.43q-3-11.13-3-29.74v-76.75h-5.27q-8.64 0-13.18-4.11a13.39 13.39 0 0 1 -4.54 -10.4 12.89 12.89 0 0 1 4.76 -10.32q4.74-3.99 13.82-3.99z"/>
    <path class="cls-1" d="m1219.1 89.51v59.32a85.69 85.69 0 0 1 14.88 -13.91 53.56 53.56 0 0 1 16 -7.69 67.19 67.19 0 0 1 18.9 -2.57q15.22 0 27 6.45a50 50 0 0 1 24.24 34.79 127.31 127.31 0 0 1 1.46 20.43v76.61q0 12-5.49 18.17t-14.58 6.15q-19.77 0-19.77-24.32v-67.52q0-19.2-5.71-29.52t-21.68-10.33a32.55 32.55 0 0 0 -19.27 6.08 36.58 36.58 0 0 0 -12.81 16.63q-3.22 8.92-3.23 31.78v52.88q0 11.87-5.34 18.1t-14.87 6.22q-19.77 0-19.78-24.32v-173.43q0-12.17 5.2-18.24t14.58-6.08q9.52 0 14.87 6.15t5.4 18.17z"/>
    <path class="cls-1" d="m1472.8 215.78h-78.22a53 53 0 0 0 5.5 24 36.76 36.76 0 0 0 33.76 20.95 47.63 47.63 0 0 0 13.11 -1.69 42.6 42.6 0 0 0 11.5 -5.27 87.52 87.52 0 0 0 10.25 -7.69q4.69-4.09 12.16-11.13 3.08-2.64 8.79-2.64a14.46 14.46 0 0 1 10 3.37q3.81 3.38 3.81 9.52 0 5.42-4.25 12.67a50.32 50.32 0 0 1 -12.82 13.92 73.06 73.06 0 0 1 -21.53 11.06q-13 4.39-29.81 4.39-38.52 0-59.91-22t-21.39-59.62a99.36 99.36 0 0 1 5.28 -32.89 72.49 72.49 0 0 1 15.38 -26 66.74 66.74 0 0 1 24.9 -16.62 89.32 89.32 0 0 1 32.81 -5.79q23.45 0 40.21 9.89t25.12 25.56a67.16 67.16 0 0 1 8.35 31.93q0 15.09-8.64 19.56t-24.36 4.52zm-78.22-22.71h72.51q-1.47-20.5-11.06-30.69t-25.27-10.18q-14.94 0-24.53 10.33t-11.65 30.54z"/>
    <path class="cls-1" d="m1579.2 229.55v33.39q0 12.17-5.71 18.24a19 19 0 0 1 -14.5 6.08 18.3 18.3 0 0 1 -14.21 -6.15q-5.57-6.15-5.57-18.17v-111.32q0-27 19.48-27 10 0 14.36 6.3t4.83 18.61q7.19-12.31 14.73-18.61t20.14-6.3a51.56 51.56 0 0 1 24.46 6.3q11.86 6.3 11.87 16.7a15.9 15.9 0 0 1 -5.06 12.09q-5.05 4.75-10.91 4.76-2.21 0-10.62-2.71a49.3 49.3 0 0 0 -14.87 -2.71q-8.79 0-14.35 4.61t-8.65 13.7a95.45 95.45 0 0 0 -4.25 21.6q-1.17 12.56-1.17 30.59z"/>
   </g>
  </g>
  <g transform="translate(0 42.333)" fill-rule="evenodd">
   <g transform="translate(336.31 -189.27)">
    <rect x="-78.687" y="357.97" width="80" height="66.667" fill="#f00" stroke-width=".22972"/>
    <g fill="#660080">
     <rect x="-39.487" y="357.97" width="6.6667" height="66.667" stroke-width=".066313"/>
     <rect transform="rotate(-47.052)" x="-289.82" y="203.9" width="6.6667" height="16.064" ry="3.3333" stroke-width=".032551"/>
     <rect transform="matrix(.75672 .65374 -.70813 .70608 0 0)" x="225.3" y="279.53" width="7.6789" height="18.404" ry="3.8191" stroke-width=".037394"/>
     <rect x="-78.687" y="387.29" width="80" height="6.6667" stroke-width=".072642"/>
    </g>
   </g>
   <g stroke-width=".265">
    <ellipse cx="68.792" cy="67.568" rx="11.339" ry="10.961" fill="#f00"/>
    <ellipse cx="150.06" cy="71.726" rx="13.229" ry="10.583" fill="#ff0"/>
    <ellipse cx="23.812" cy="163.2" rx="13.229" ry="10.583" fill="#ff0"/>
    <ellipse cx="187.1" cy="178.32" rx="13.229" ry="10.583" fill="#f00"/>
   </g>
   <g transform="matrix(.83333 0 0 .83333 116.31 224.54)">
    <rect x="-222.91" y="-79.891" width="120" height="100" fill="#fc0" stroke-width=".34457"/>
    <g fill="#2a2aff">
     <rect x="-164.11" y="-79.891" width="10" height="100" stroke-width=".09947"/>
     <rect transform="rotate(-47.052)" x="-54.667" y="-191.19" width="10" height="24.095" ry="5" stroke-width=".048827"/>
     <rect transform="matrix(.75672 .65374 -.70813 .70608 0 0)" x="-174.32" y="19.972" width="11.518" height="27.607" ry="5.7286" stroke-width=".056091"/>
     <rect x="-222.91" y="-35.91" width="120" height="10" stroke-width=".10896"/>
    </g>
   </g>
   <g transform="matrix(.84374 0 0 1 21.237 -2.1167)">
    <g fill="#008000">
     <path d="m257.02-17.798s6.7744 13.402-136.11 26.013c-136.4 12.039-138.77-3.7066-138.77-3.7066l121.01-153.96z" stroke-width=".16298"/>
     <path d="m299.47 78.862s8.5363 16.867-171.33 32.856c-171.71 15.264-174.71-4.5563-174.71-4.5563l152.25-193.92z" stroke-width=".20518"/>
     <path d="m352.59 207.31s9.946 21.549-215.39 31.368c-215.12 9.3735-218.02-15.552-218.02-15.552l198.4-233.62z" stroke-width=".25647"/>
    </g>
    <g stroke-width=".19707">
     <circle cx="211" cy="3.0364" r="17.5" fill="#f00"/>
     <circle cx="15.362" cy="18.003" r="17.5" fill="#ff0"/>
     <circle cx="-34.885" cy="196.54" r="17.5" fill="#ff0"/>
     <circle cx="81.645" cy="109.94" r="17.5" fill="#f00"/>
     <circle cx="242.01" cy="111.01" r="17.5" fill="#ff0"/>
    </g>
    <path transform="matrix(1.0746 -.44185 .44185 1.0746 51.01 15.831)" d="m71.089-147.79 25.543 9.7863 22.542-15.494-1.4142 27.317 21.701 16.651-26.417 7.0964-9.1302 25.785-14.912-22.931-27.344-0.71549 17.2-21.269z" fill="#fc0" stroke-width=".265"/>
   </g>
   <g transform="translate(25.081 -44.751)">
    <rect x="16.563" y="263.47" width="80" height="66.667" fill="#95f" stroke-width=".22972"/>
    <g fill="#fff">
     <rect x="55.763" y="263.47" width="6.6667" height="66.667" stroke-width=".066313"/>
     <rect transform="rotate(-47.052)" x="-155.75" y="209.24" width="6.6667" height="16.064" ry="3.3333" stroke-width=".032551"/>
     <rect transform="matrix(.75672 .65374 -.70813 .70608 0 0)" x="225.64" y="145.38" width="7.6789" height="18.404" ry="3.8191" stroke-width=".037394"/>
     <rect x="16.563" y="292.8" width="80" height="6.6667" stroke-width=".072642"/>
    </g>
   </g>
   <g transform="translate(-20.31 -53.227)">
    <rect x="140.58" y="246.81" width="100" height="83.333" fill="#f60" stroke-width=".28714"/>
    <g fill="#ff0">
     <rect x="189.58" y="246.81" width="8.3333" height="83.333" stroke-width=".082891"/>
     <rect transform="rotate(-47.052)" x="-52.603" y="293.06" width="8.3333" height="20.08" ry="4.1667" stroke-width=".040689"/>
     <rect transform="matrix(.75672 .65374 -.70813 .70608 0 0)" x="308.32" y="40.517" width="9.5987" height="23.006" ry="4.7738" stroke-width=".046743"/>
     <rect x="140.58" y="283.46" width="100" height="8.3333" stroke-width=".090803"/>
    </g>
   </g>
  </g>
 </g>
</svg>
