<?xml version="1.0" encoding="UTF-8"?>
<svg width="2047.4" height="414" version="1.1" viewBox="0 0 541.73 109.54" xmlns="http://www.w3.org/2000/svg">
 <defs>
  <style>.cls-1{fill:#f7f7fa;}</style>
  <style>.cls-1{fill:#f7f7fa;}</style>
 </defs>
 <g transform="translate(-63.19 -7.183)">
  <g transform="matrix(1.2735,0,0,1.2735,-82.985,2635.9)" data-name="2">
   <g fill="#f7f7fa" data-name="1">
    <g transform="matrix(5.4336,0,0,5.4336,-508.91,8774)">
     <path transform="translate(.16631 .27027)" d="m125.2-1994.8c-0.1697-0.1698-0.44298-0.1698-0.61269 0l-4.1297 4.1296c-0.16971 0.1697-0.16971 0.4429 0 0.6127l4.1297 4.1296c0.16971 0.1698 0.44298 0.1698 0.61269 0l4.1297-4.1296c0.16971-0.1698 0.16973-0.443 0-0.6127zm0.27488 0.904a0.83835 0.83835 0 0 1-1e-5 1.1855 0.83835 0.83835 0 0 1-1.1857 0 0.83835 0.83835 0 0 1 2.2e-4 -1.1853 0.83835 0.83835 0 0 1 1.1855-2e-4zm2.9278 2.9276a0.83835 0.83835 0 0 1-1e-5 1.1857 0.83835 0.83835 0 0 1-1.1857 1e-4 0.83835 0.83835 0 0 1 2.1e-4 -1.1856 0.83835 0.83835 0 0 1 1.1855-2e-4zm-2.9161 0.011a0.83835 0.83835 0 0 1-2e-4 1.1855 0.83835 0.83835 0 0 1-1.1853 1e-4 0.83835 0.83835 0 0 1-2e-4 -1.1856 0.83835 0.83835 0 0 1 1.1857 0zm-2.9396-0.011a0.83835 0.83835 0 0 1 1.9e-4 1.1854 0.83835 0.83835 0 0 1-1.1857 1e-4 0.83835 0.83835 0 0 1 2e-4 -1.1855 0.83835 0.83835 0 0 1 1.1853 0zm2.9278 2.9278a0.83835 0.83835 0 0 1 2e-4 1.1855 0.83835 0.83835 0 0 1-1.1857 0 0.83835 0.83835 0 0 1 2.2e-4 -1.1854 0.83835 0.83835 0 0 1 1.1853-1e-4z" fill="#20c997" fill-rule="evenodd" stroke-width=".19043"/>
     <g transform="translate(.16631 .27027)" fill="#f7f7fa">
      <g fill-rule="evenodd" stroke-width=".0075243">
       <path d="m129.16-1988.4 1.0319-1.0318c0.10719-0.1072 0.27978-0.1072 0.38697 0l4.5146 4.5145c0.10718 0.1072 0.10718 0.2798 0 0.387l-1.0319 1.0319c-0.10719 0.1072-0.27979 0.1072-0.38698 0l-4.5146-4.5146c-0.10719-0.1072-0.10719-0.2798 0-0.387z"/>
       <path d="m130.58-1989.4 1.0319 1.0318c0.10719 0.1073 0.10719 0.2799 0 0.3871l-4.5146 4.5146c-0.10719 0.1072-0.27978 0.1072-0.38697 0l-1.0319-1.0319c-0.10719-0.1072-0.10719-0.2798 0-0.387l4.5146-4.5146c0.10718-0.1072 0.27977-0.1072 0.38696 0z"/>
       <path d="m118.18-1988.4 1.0319-1.0319c0.10718-0.1072 0.27977-0.1072 0.38696 0l4.5146 4.5145c0.1072 0.1072 0.1072 0.2799 0 0.3871l-1.0319 1.0318c-0.10719 0.1072-0.27978 0.1072-0.38696 0l-4.5146-4.5146c-0.1072-0.1071-0.1072-0.2797 0-0.3869z"/>
       <path d="m119.6-1989.4 1.0319 1.0319c0.10719 0.1072 0.10719 0.2798 0 0.3869l-4.5146 4.5146c-0.10719 0.1072-0.27977 0.1072-0.38696 0l-1.0319-1.0318c-0.10718-0.1072-0.10718-0.2799 0-0.3871l4.5146-4.5145c0.10719-0.1072 0.27977-0.1072 0.38696 0z"/>
      </g>
      <path d="m124.89-1985.1a2.4996 2.925 0 0 0-2.4994 2.9248 2.4996 2.925 0 0 0 2.4994 2.9251 2.4996 2.925 0 0 0 2.4998-2.9251 2.4996 2.925 0 0 0-2.4998-2.9248zm0 1.8147a0.56573 1.1103 0 0 1 0.56558 1.1101 0.56573 1.1103 0 0 1-0.56558 1.1104 0.56573 1.1103 0 0 1-0.56559-1.1104 0.56573 1.1103 0 0 1 0.56559-1.1101z" stroke-width=".98993" style="paint-order:stroke fill markers"/>
     </g>
    </g>
    <g transform="matrix(4.109,0,0,4.109,-325.21,6142.5)" fill="#f7f7fa">
     <path class="cls-1" d="m142.18-1982.4v-0.2023a5.1355 5.1355 0 0 1-0.80349 0.7585 3.0218 3.0218 0 0 1-0.85962 0.4445 3.2271 3.2271 0 0 1-1.0113 0.1517 2.9834 2.9834 0 0 1-1.3446-0.3075 3.1351 3.1351 0 0 1-1.07-0.8778 3.9912 3.9912 0 0 1-0.68517-1.3405 5.718 5.718 0 0 1-0.23362-1.6687q0-1.8962 0.92587-2.9556 0.92587-1.0593 2.4398-1.0517 0.87378 0 1.474 0.2998 0.60022 0.2999 1.1681 0.9203v-2.9834q0-0.6219 0.24828-0.9405t0.70793-0.3186q0.45863 0 0.70793 0.2928 0.24929 0.2928 0.24878 0.8586v8.9204q0 0.578-0.26648 0.8667a0.89502 0.89502 0 0 1-0.68871 0.2887 0.88238 0.88238 0 0 1-0.68517-0.2998q-0.27256-0.3004-0.27256-0.8556zm-3.9775-2.9703q0 0.8222 0.25536 1.3997t0.69984 0.8708a1.7284 1.7284 0 0 0 0.97036 0.2922 1.7911 1.7911 0 0 0 0.97441-0.2776q0.44043-0.2776 0.70338-0.852 0.26294-0.5745 0.26294-1.4331 0-0.809-0.26294-1.389-0.26295-0.58-0.71096-0.8885a1.6965 1.6965 0 0 0-0.98149-0.3074 1.656 1.656 0 0 0-0.99262 0.3145q-0.43689 0.3145-0.67758 0.9036-0.2407 0.5891-0.23867 1.3668z" stroke-width=".050566"/>
     <path class="cls-1" d="m147.15-1990.4a1.0674 1.0674 0 0 1-0.72208-0.2594q-0.29833-0.2584-0.29833-0.7332a0.91017 0.91017 0 0 1 0.30743-0.7079 1.0325 1.0325 0 0 1 0.71298-0.2746 1.0619 1.0619 0 0 1 0.69627 0.2529q0.3034 0.2528 0.3034 0.7332 0 0.4662-0.29632 0.7296a1.025 1.025 0 0 1-0.70335 0.2594zm1.0022 2.0888v5.8439q0 0.6067-0.28874 0.9187a0.9577 0.9577 0 0 1-0.73318 0.311 0.91422 0.91422 0 0 1-0.72258-0.3185q-0.2776-0.3186-0.2776-0.9102v-5.7857q0-0.5996 0.2776-0.9035a0.93545 0.93545 0 0 1 0.72258-0.3034 0.96984 0.96984 0 0 1 0.73318 0.3034q0.28874 0.3034 0.28874 0.8443z" stroke-width=".050565"/>
     <g stroke-width=".050566">
      <path class="cls-1" d="m157.49-1983.8q0 0.3777-0.22603 0.8091a2.7741 2.7741 0 0 1-0.68871 0.8181q-0.46369 0.3889-1.1671 0.626a4.9555 4.9555 0 0 1-1.5847 0.2372q-1.874 0-2.9258-1.0928-1.0518-1.0927-1.0518-2.9293 0-1.2449 0.48139-2.2001a3.4491 3.4491 0 0 1 1.3926-1.4775q0.91019-0.5224 2.1774-0.5224a4.3411 4.3411 0 0 1 1.4406 0.2296 3.7722 3.7722 0 0 1 1.1125 0.5926 2.855 2.855 0 0 1 0.69629 0.7742q0.24019 0.4111 0.2407 0.7666a0.80906 0.80906 0 0 1-0.27053 0.6149 0.92789 0.92789 0 0 1-0.65736 0.2528 0.6609 0.6609 0 0 1-0.41869-0.13 2.0262 2.0262 0 0 1-0.37419-0.4181q-0.37014-0.5628-0.77416-0.8445-0.40403-0.2816-1.0255-0.2816-0.89654 0-1.4447 0.6998t-0.54814 1.9149a3.6913 3.6913 0 0 0 0.14108 1.0483 2.3766 2.3766 0 0 0 0.40706 0.8146 1.7415 1.7415 0 0 0 0.64472 0.5112 1.9599 1.9599 0 0 0 0.82928 0.174q0.6068 0 1.0406-0.2812 0.43386-0.2811 0.76659-0.8596a1.9776 1.9776 0 0 1 0.39998-0.533 0.75849 0.75849 0 0 1 0.52588-0.1926 0.77922 0.77922 0 0 1 0.61489 0.2811q0.24625 0.2796 0.24575 0.5977z"/>
      <path class="cls-1" d="m164.9-1984.9h-3.9553a2.68 2.68 0 0 0 0.27761 1.2135 1.8603 1.8603 0 0 0 1.7076 1.0594 2.4115 2.4115 0 0 0 0.66292-0.086 2.1683 2.1683 0 0 0 0.58151-0.2664 4.4685 4.4685 0 0 0 0.5183-0.3889q0.23665-0.2068 0.61489-0.5628 0.15523-0.1335 0.44447-0.1335a0.73119 0.73119 0 0 1 0.50566 0.1704q0.19266 0.1709 0.19266 0.4814 0 0.2741-0.21491 0.6407a2.5602 2.5602 0 0 1-0.64825 0.7039 3.6944 3.6944 0 0 1-1.0887 0.5592q-0.65736 0.222-1.5074 0.222-1.9488 0-3.0294-1.1124-1.0806-1.1125-1.0816-3.0148a5.0374 5.0374 0 0 1 0.26648-1.6631 3.6797 3.6797 0 0 1 0.77771-1.3147 3.3768 3.3768 0 0 1 1.2596-0.8404 4.5166 4.5166 0 0 1 1.6591-0.2928q1.1848 0 2.0333 0.5001t1.2702 1.2924a3.396 3.396 0 0 1 0.42223 1.6146q0 0.7631-0.4369 0.9891-0.43689 0.226-1.2318 0.2286zm-3.9553-1.1484h3.6666q-0.0743-1.0366-0.55926-1.5519-0.48493-0.5152-1.2778-0.5147-0.75545 0-1.2409 0.5223-0.48543 0.5224-0.58859 1.5443z"/>
      <path class="cls-1" d="m168.38-1989.3h0.22198v-1.2136q0-0.4895 0.0263-0.7671a1.1296 1.1296 0 0 1 0.14412-0.4774 0.91019 0.91019 0 0 1 0.34081-0.3372 0.96632 0.96632 0 0 1 0.49656-0.1295 0.99767 0.99767 0 0 1 0.6963 0.2862 0.85356 0.85356 0 0 1 0.26294 0.4703 4.2364 4.2364 0 0 1 0.0556 0.7888v1.3779h0.73877q0.4293 0 0.65736 0.2023a0.67202 0.67202 0 0 1 0.22552 0.5219q0 0.408-0.32211 0.5703-0.3221 0.1624-0.92182 0.1644h-0.37772v3.7181a6.028 6.028 0 0 0 0.0334 0.7297 0.74079 0.74079 0 0 0 0.17799 0.4146q0.14412 0.1593 0.47027 0.1593a2.5106 2.5106 0 0 0 0.48139-0.063 2.503 2.503 0 0 1 0.47431-0.063 0.61033 0.61033 0 0 1 0.44043 0.1962 0.65736 0.65736 0 0 1 0.19619 0.4854q0 0.4885-0.53296 0.7479-0.53297 0.2594-1.5332 0.2594-0.94862 0-1.4371-0.3186a1.477 1.477 0 0 1-0.64067-0.8813q-0.1517-0.5628-0.1517-1.5039v-3.8809h-0.26648q-0.43689 0-0.66646-0.2078a0.67708 0.67708 0 0 1-0.22957-0.5259 0.6518 0.6518 0 0 1 0.24069-0.5219q0.23968-0.2017 0.69883-0.2017z"/>
      <path class="cls-1" d="m175.61-1991.3v2.9996a4.333 4.333 0 0 1 0.75242-0.7034 2.7083 2.7083 0 0 1 0.80906-0.3889 3.3975 3.3975 0 0 1 0.9557-0.1299q0.76962 0 1.3653 0.3261a2.5283 2.5283 0 0 1 1.2257 1.7592 6.4376 6.4376 0 0 1 0.0738 1.0331v3.8739q0 0.6067-0.2776 0.9187-0.27761 0.312-0.73726 0.311-0.99969 0-0.99969-1.2297v-3.4143q0-0.9708-0.28873-1.4927-0.28874-0.5218-1.0963-0.5223a1.6459 1.6459 0 0 0-0.97441 0.3074 1.8497 1.8497 0 0 0-0.64775 0.8409q-0.16282 0.4511-0.16333 1.607v2.674q0 0.6002-0.27002 0.9152t-0.75192 0.3145q-0.99969 0-1.0002-1.2297v-8.7697q0-0.6154 0.26294-0.9224 0.26294-0.3069 0.73725-0.3074 0.48139 0 0.75192 0.311t0.27306 0.9188z"/>
      <path class="cls-1" d="m188.44-1984.9h-3.9553a2.68 2.68 0 0 0 0.27811 1.2135 1.8588 1.8588 0 0 0 1.7071 1.0594 2.4085 2.4085 0 0 0 0.66292-0.086 2.1541 2.1541 0 0 0 0.58151-0.2664 4.4255 4.4255 0 0 0 0.51831-0.3889q0.23715-0.2068 0.61488-0.5628 0.15575-0.1335 0.44448-0.1335a0.73119 0.73119 0 0 1 0.50566 0.1704q0.19266 0.1709 0.19266 0.4814 0 0.2741-0.21491 0.6407a2.5445 2.5445 0 0 1-0.64826 0.7039 3.6944 3.6944 0 0 1-1.0887 0.5592q-0.65736 0.222-1.5074 0.222-1.9478 0-3.0294-1.1124-1.0816-1.1125-1.0816-3.0148a5.0242 5.0242 0 0 1 0.26699-1.6631 3.6655 3.6655 0 0 1 0.77771-1.3147 3.3748 3.3748 0 0 1 1.2591-0.8404 4.5166 4.5166 0 0 1 1.6591-0.2928q1.1858 0 2.0333 0.5001t1.2702 1.2924a3.396 3.396 0 0 1 0.42223 1.6146q0 0.7631-0.43689 0.9891t-1.2318 0.2286zm-3.9553-1.1484h3.6666q-0.0743-1.0366-0.55927-1.5519-0.48492-0.5152-1.2778-0.5147-0.75546 0-1.2404 0.5223-0.48493 0.5224-0.58909 1.5443z"/>
      <path class="cls-1" d="m193.82-1984.2v1.6884q0 0.6153-0.28874 0.9223a0.96076 0.96076 0 0 1-0.73321 0.3074 0.92536 0.92536 0 0 1-0.71854-0.311q-0.28165-0.3109-0.28165-0.9187v-5.6291q0-1.3653 0.98502-1.3653 0.50567 0 0.72613 0.3186 0.22047 0.3186 0.24424 0.9411 0.36357-0.6225 0.74484-0.9411t1.0184-0.3186a2.6072 2.6072 0 0 1 1.2368 0.3186q0.59971 0.3186 0.60022 0.8445a0.804 0.804 0 0 1-0.25587 0.6113q-0.25536 0.2402-0.55168 0.2407-0.11175 0-0.53701-0.137a2.4929 2.4929 0 0 0-0.75192-0.1371q-0.44447 0-0.72562 0.2332-0.28115 0.2331-0.4374 0.6927a4.8265 4.8265 0 0 0-0.2149 1.0922q-0.0592 0.6351-0.0592 1.5469z"/>
     </g>
    </g>
   </g>
  </g>
 </g>
 <g transform="matrix(.22172 0 0 .22172 466.87 46.264)" fill-rule="evenodd">
  <g transform="translate(336.31,-189.27)">
   <rect x="-78.687" y="357.97" width="80" height="66.667" fill="#f00" stroke-width=".22972"/>
   <g fill="#660080">
    <rect x="-39.487" y="357.97" width="6.6667" height="66.667" stroke-width=".066313"/>
    <rect transform="rotate(-47.052)" x="-289.82" y="203.9" width="6.6667" height="16.064" ry="3.3333" stroke-width=".032551"/>
    <rect transform="matrix(.75672 .65374 -.70813 .70608 0 0)" x="225.3" y="279.53" width="7.6789" height="18.404" ry="3.8191" stroke-width=".037394"/>
    <rect x="-78.687" y="387.29" width="80" height="6.6667" stroke-width=".072642"/>
   </g>
  </g>
  <g stroke-width=".265">
   <ellipse cx="68.792" cy="67.568" rx="11.339" ry="10.961" fill="#f00"/>
   <ellipse cx="150.06" cy="71.726" rx="13.229" ry="10.583" fill="#ff0"/>
   <ellipse cx="23.812" cy="163.2" rx="13.229" ry="10.583" fill="#ff0"/>
   <ellipse cx="187.1" cy="178.32" rx="13.229" ry="10.583" fill="#f00"/>
  </g>
  <g transform="matrix(.83333 0 0 .83333 116.31 224.54)">
   <rect x="-222.91" y="-79.891" width="120" height="100" fill="#fc0" stroke-width=".34457"/>
   <g fill="#2a2aff">
    <rect x="-164.11" y="-79.891" width="10" height="100" stroke-width=".09947"/>
    <rect transform="rotate(-47.052)" x="-54.667" y="-191.19" width="10" height="24.095" ry="5" stroke-width=".048827"/>
    <rect transform="matrix(.75672 .65374 -.70813 .70608 0 0)" x="-174.32" y="19.972" width="11.518" height="27.607" ry="5.7286" stroke-width=".056091"/>
    <rect x="-222.91" y="-35.91" width="120" height="10" stroke-width=".10896"/>
   </g>
  </g>
  <g transform="matrix(.84374 0 0 1 21.237 -2.1167)">
   <g fill="#008000">
    <path d="m257.02-17.798s6.7744 13.402-136.11 26.013c-136.4 12.039-138.77-3.7066-138.77-3.7066l121.01-153.96z" stroke-width=".16298"/>
    <path d="m299.47 78.862s8.5363 16.867-171.33 32.856c-171.71 15.264-174.71-4.5563-174.71-4.5563l152.25-193.92z" stroke-width=".20518"/>
    <path d="m352.59 207.31s9.946 21.549-215.39 31.368c-215.12 9.3735-218.02-15.552-218.02-15.552l198.4-233.62z" stroke-width=".25647"/>
   </g>
   <g stroke-width=".19707">
    <circle cx="211" cy="3.0364" r="17.5" fill="#f00"/>
    <circle cx="15.362" cy="18.003" r="17.5" fill="#ff0"/>
    <circle cx="-34.885" cy="196.54" r="17.5" fill="#ff0"/>
    <circle cx="81.645" cy="109.94" r="17.5" fill="#f00"/>
    <circle cx="242.01" cy="111.01" r="17.5" fill="#ff0"/>
   </g>
   <path transform="matrix(1.0746 -.44185 .44185 1.0746 51.01 15.831)" d="m71.089-147.79 25.543 9.7863 22.542-15.494-1.4142 27.317 21.701 16.651-26.417 7.0964-9.1302 25.785-14.912-22.931-27.344-0.71549 17.2-21.269z" fill="#fc0" stroke-width=".265"/>
  </g>
  <g transform="translate(25.081,-44.751)">
   <rect x="16.563" y="263.47" width="80" height="66.667" fill="#95f" stroke-width=".22972"/>
   <g fill="#fff">
    <rect x="55.763" y="263.47" width="6.6667" height="66.667" stroke-width=".066313"/>
    <rect transform="rotate(-47.052)" x="-155.75" y="209.24" width="6.6667" height="16.064" ry="3.3333" stroke-width=".032551"/>
    <rect transform="matrix(.75672 .65374 -.70813 .70608 0 0)" x="225.64" y="145.38" width="7.6789" height="18.404" ry="3.8191" stroke-width=".037394"/>
    <rect x="16.563" y="292.8" width="80" height="6.6667" stroke-width=".072642"/>
   </g>
  </g>
  <g transform="translate(-20.31,-53.227)">
   <rect x="140.58" y="246.81" width="100" height="83.333" fill="#f60" stroke-width=".28714"/>
   <g fill="#ff0">
    <rect x="189.58" y="246.81" width="8.3333" height="83.333" stroke-width=".082891"/>
    <rect transform="rotate(-47.052)" x="-52.603" y="293.06" width="8.3333" height="20.08" ry="4.1667" stroke-width=".040689"/>
    <rect transform="matrix(.75672 .65374 -.70813 .70608 0 0)" x="308.32" y="40.517" width="9.5987" height="23.006" ry="4.7738" stroke-width=".046743"/>
    <rect x="140.58" y="283.46" width="100" height="8.3333" stroke-width=".090803"/>
   </g>
  </g>
 </g>
</svg>
