<?xml version="1.0" encoding="UTF-8"?>
<svg width="160" height="160" version="1.1" viewBox="0 0 160 160" xmlns="http://www.w3.org/2000/svg" xmlns:cc="http://creativecommons.org/ns#" xmlns:dc="http://purl.org/dc/elements/1.1/" xmlns:rdf="http://www.w3.org/1999/02/22-rdf-syntax-ns#">
 <rect width="160" height="160" fill="none" stroke-width=".096381"/>
 <path d="m98.256 125v30q0 2-1.5 3.5t-3.5 1.5h-30q-2 0-3.5-1.5t-1.5-3.5v-30q0-2 1.5-3.5t3.5-1.5h30q2 0 3.5 1.5t1.5 3.5zm39.5-75q0 6.75-1.9375 12.625t-4.375 9.5625-6.875 7.4375-7.1875 5.4375-7.625 4.4375q-5.125 2.875-8.5625 8.125-3.4375 5.25-3.4375 8.375 0 2.125-1.5 4.0625t-3.5 1.9375h-30q-1.875 0-3.1875-2.3125t-1.3125-4.6875v-5.625q0-10.375 8.125-19.562t17.875-13.562q7.375-3.375 10.5-7t3.125-9.5q0-5.25-5.8125-9.25t-13.438-4q-8.125 0-13.5 3.625-4.375 3.125-13.375 14.375-1.625 2-3.875 2-1.5 0-3.125-1l-20.5-15.625q-1.625-1.25-1.9375-3.125t0.6875-3.5q20-33.25 58-33.25 10 0 20.125 3.875 10.125 3.875 18.25 10.375t13.25 15.938 5.125 19.812z" fill="#3498db" stroke-width=".125"/>
 <path d="m0.0080433 79.955v-79.966l37.669 0.027c33.784 0.025 37.364 0.062 34.703 0.3628-16.561 1.8716-30.729 9.2715-41.279 21.559-3.9527 4.604-8.3546 11.1-8.7639 12.934-0.36689 1.6437 0.22542 3.5634 1.4352 4.6516 1.505 1.3538 20.864 15.937 21.775 16.404 1.4644 0.7494 3.3237 0.731 4.6493-0.046 0.54665-0.3204 1.6164-1.3615 2.3772-2.3136 2.9686-3.715 6.8221-8.022 9.519-10.639 2.4496-2.3772 3.1189-2.8849 5.0716-3.8472 8.8665-4.3693 20.522-2.9402 27.086 3.3213 2.4991 2.3838 3.5228 4.6427 3.5151 7.7567-0.0101 4.0949-1.3727 7.4336-4.0854 10.01-2.268 2.1541-3.9458 3.2323-9.0588 5.8212-7.0864 3.5882-10.051 5.6423-14.785 10.243-4.7177 4.5853-7.5954 8.4402-9.3654 12.546-1.8366 4.2602-2.4316 7.9476-2.2776 14.116 0.10761 4.3095 0.42123 5.6609 1.7233 7.4257 1.3154 1.783 0.0464 1.6648 17.9 1.6666h15.996l0.98666-0.5782c1.5898-0.9317 2.9703-3.2831 2.9703-5.0593 0-3.3024 3.1668-9.1588 6.9997-12.945 2.0141-1.9893 2.8052-2.5248 9.9834-6.7567 6.4892-3.8257 12.661-8.9777 15.838-13.22 1.6292-2.176 3.7899-6.5004 4.9907-9.9879 3.6833-10.698 2.805-22.105-2.497-32.426-5.3978-10.508-14.037-18.67-25.942-24.506-7.193-3.5263-12.821-5.2619-20.288-6.2568-0.91743-0.1222 13.576-0.2173 35.771-0.2348l37.314-0.029v159.93h-65.098l1.0492-0.7024c0.57703-0.3863 1.3161-1.0992 1.6424-1.5842l0.59322-0.8818 0.0693-16.153c0.0381-8.8842 8e-3 -16.492-0.0668-16.907-0.18333-1.0151-2.0484-3.0504-3.1543-3.4421-0.69623-0.2467-4.257-0.3125-16.899-0.3125h-16.017l-0.98552 0.527c-1.21 0.6471-2.2984 1.9293-2.6589 3.1325-0.38174 1.2742-0.38174 31.509 0 32.783 0.34938 1.1661 1.4394 2.4804 2.5391 3.0613 0.86194 0.4554 0.65241 0.4587-30.039 0.4691l-30.907 0.01z" fill="none" stroke-width=".23729"/>
</svg>
