<svg xmlns="http://www.w3.org/2000/svg" viewBox="0 0 386.48 887.43"><defs><style>.cls-1{fill:#fff;}.cls-2{fill:none;}.cls-3{fill:#343a40;}</style></defs><title>Result Slider</title><g id="L_2" data-name="L 2"><g id="L_1-2" data-name="L 1"><rect class="cls-1" x="55.3" y="71.09" width="270.2" height="166.4" rx="9.76" ry="9.76"/><rect class="cls-2" width="386.48" height="887.43" rx="10.39" ry="10.39"/><ellipse class="cls-3" cx="137.82" cy="154.29" rx="27.69" ry="29.4" transform="translate(-23.23 284.15) rotate(-87.11)"/><path class="cls-3" d="M138.05,182.42c-.76,0-1.53,0-2.3-.08-16.42-1.17-28.84-14.7-27.7-30.17a27.23,27.23,0,0,1,9.85-18.94,30.57,30.57,0,0,1,22-7c16.42,1.17,28.84,14.7,27.7,30.17a27.23,27.23,0,0,1-9.85,18.94A30.47,30.47,0,0,1,138.05,182.42Zm-.46-55.4a29.56,29.56,0,0,0-19.1,6.86,26.36,26.36,0,0,0-9.55,18.35c-1.11,15,11,28.12,26.87,29.25a29.76,29.76,0,0,0,21.35-6.78,26.39,26.39,0,0,0,9.54-18.35c1.11-15-10.95-28.11-26.87-29.25C139.08,127.05,138.33,127,137.59,127Z"/><path class="cls-3" d="M365.85,90.44l-.07,71q0,27.7-6.61,47.52T334.5,244.92q-46,42-139.86,41.94a349.79,349.79,0,0,1-56.54-4.26A198.88,198.88,0,0,1,92,269.54,143.57,143.57,0,0,1,55.32,247,95.21,95.21,0,0,1,35.4,223.27a90.54,90.54,0,0,1-10.53-27.63,165.07,165.07,0,0,1-3-33.3l.07-71q0-14.86,5.76-22.38t16.2-9.81Q54.32,56.85,71,56.86l252.2.15q22.53,0,32.61,7.91T365.85,90.44ZM310.7,111.5l-233.44-.14,0,41.29a186.48,186.48,0,0,0,.91,21.28,54.53,54.53,0,0,0,4.68,16,42.41,42.41,0,0,0,10.55,14.32q29.53,27.36,101.79,27.4,50.91,0,76.26-12T303.7,190q6.94-17.61,7-42.57Z"/><ellipse class="cls-3" cx="248.66" cy="154.29" rx="27.69" ry="29.4" transform="translate(82.02 394.85) rotate(-87.11)"/><path class="cls-3" d="M248.9,182.42c-.77,0-1.54,0-2.31-.08-16.41-1.17-28.84-14.7-27.7-30.17a27.21,27.21,0,0,1,9.86-18.94,30.56,30.56,0,0,1,22-7c16.42,1.17,28.85,14.7,27.7,30.17a27.23,27.23,0,0,1-9.85,18.94A30.45,30.45,0,0,1,248.9,182.42Zm-.47-55.4a29.56,29.56,0,0,0-19.1,6.86,26.44,26.44,0,0,0-9.55,18.35c-1.11,15,10.95,28.12,26.88,29.25A29.72,29.72,0,0,0,268,174.7a26.44,26.44,0,0,0,9.55-18.35h0c1.1-15-10.95-28.11-26.88-29.25C249.92,127.05,249.17,127,248.43,127Z"/><path class="cls-3" d="M361.52,282.62a26,26,0,0,0-13.83-12.07q-9.51-3.85-24.52-3.85l-258.52.07q-22.53,0-32.62,8.63t-10.1,28.3l-.08,163.73q0,14.2,7.61,21.41T49.28,496q12.67,0,20.3-7.21t7.63-21.41L77.28,327h44.17v-.5H293.22V327h18.9l-.07,135.74q0,14.4,7.38,21.4t19.58,7q12,0,19.36-7t7.4-21.41l.08-159.06Q365.85,290.84,361.52,282.62Z"/><rect class="cls-1" x="74.71" y="325.18" width="237.07" height="237.07" rx="11.34" ry="11.34"/><path class="cls-3" d="M292,570.9H95.9A27,27,0,0,1,69,544v-199A27,27,0,0,1,95.9,318H292A27,27,0,0,1,319,344.91V544A27,27,0,0,1,292,570.9ZM95.9,326.73a18.21,18.21,0,0,0-18.18,18.18V544A18.21,18.21,0,0,0,95.9,562.14H292A18.2,18.2,0,0,0,310.2,544v-199A18.2,18.2,0,0,0,292,326.73Z"/></g></g></svg>
