<svg xmlns="http://www.w3.org/2000/svg" viewBox="0 0 386.48 887.43"><defs><style>.cls-1{fill:#fff;}.cls-2{fill:none;}.cls-3{fill:#343a40;}</style></defs><title>Result Slider</title><g id="L_2" data-name="L 2"><g id="L_1-2" data-name="L 1"><rect class="cls-1" x="74.71" y="325.18" width="237.07" height="237.07" rx="11.34" ry="11.34"/><path class="cls-3" d="M292,570.9H95.9A27,27,0,0,1,69,544v-199A27,27,0,0,1,95.9,318H292A27,27,0,0,1,319,344.91V544A27,27,0,0,1,292,570.9ZM95.9,326.73a18.21,18.21,0,0,0-18.18,18.18V544A18.21,18.21,0,0,0,95.9,562.14H292A18.2,18.2,0,0,0,310.2,544v-199A18.2,18.2,0,0,0,292,326.73Z"/></g></g></svg>
