<?xml version="1.0" encoding="UTF-8"?>
<svg width="88.127mm" height="88.127mm" version="1.1" viewBox="0 0 88.127 88.127" xmlns="http://www.w3.org/2000/svg">
 <g transform="translate(395.39 540.28)">
  <g fill="#f0f"></g>
  <rect x="-395.39" y="-540.28" width="88.127" height="88.127" fill="none" stroke-width=".37971"/>
  <g transform="translate(0 -77.583)" fill="#3498db">
   <path d="m-359.73-383.2-1.9461 7.2643a40 40 0 0 0 27.257-2.385l-3.1773-6.8137a32.5 32.5 0 0 1-22.134 1.9344z" style="paint-order:normal"/>
   <path d="m-337.64-452.16-2.5763 7.078a32.5 32.5 0 0 1 17.041 14.26l6.495-3.7499a40 40 0 0 0-20.96-17.588z" style="paint-order:normal"/>
   <path d="m-371.32-449.21a40 40 0 0 0-17.587 20.96l7.078 2.5763a32.5 32.5 0 0 1 14.259-17.041z" style="paint-order:normal"/>
   <path d="m-389.96-424.93a40 40 0 0 0 2.3846 27.257l6.8137-3.1773a32.5 32.5 0 0 1-1.9337-22.134z" style="paint-order:normal"/>
   <path d="m-385.96-394.57a40 40 0 0 0 20.96 17.588l2.5764-7.078a32.5 32.5 0 0 1-17.041-14.26z" style="paint-order:normal"/>
   <path d="m-320.81-403.47a32.5 32.5 0 0 1-14.26 17.041l3.7499 6.495a40 40 0 0 0 17.588-20.96z" style="paint-order:normal"/>
   <path d="m-321.88-428.3a32.5 32.5 0 0 1 1.9337 22.134l7.2646 1.9465a40 40 0 0 0-2.3846-27.257z" style="paint-order:normal"/>
   <path d="m-351.32-434.57a20 20 0 0 0-20 20 20 20 0 0 0 20 20 20 20 0 0 0 20-20 20 20 0 0 0-20-20zm-3.4726 7.7708h8.7312c1.7198 0 2.5796 0.65596 2.5796 1.9679 0 0.57327-0.20943 1.0363-0.62835 1.3891-0.41892 0.35278-1.0363 0.52917-1.8521 0.52917h-7.8548l-0.94258 5.3579c1.5654-0.83785 3.0096-1.2568 4.3325-1.2568 1.0583 0 2.045 0.19845 2.96 0.59533 0.92604 0.39687 1.7363 0.94809 2.4308 1.6536 0.6945 0.69454 1.2402 1.5214 1.6371 2.4805 0.39687 0.95913 0.59531 1.9899 0.59531 3.0924 0 1.5986-0.35827 3.0538-1.0749 4.3657-0.71655 1.3119-1.7528 2.3537-3.1088 3.1254-1.345 0.77171-2.8994 1.1576-4.6632 1.1576-1.9734 0-3.5774-0.36381-4.8121-1.0914-1.2237-0.7276-2.0946-1.5599-2.6128-2.497-0.50712-0.9481-0.76065-1.7749-0.76065-2.4805 0-0.42995 0.17639-0.83786 0.52916-1.2237 0.36378-0.38584 0.81579-0.57878 1.356-0.57878 0.92603 0 1.615 0.53469 2.067 1.6041 0.44097 0.98117 1.0363 1.7474 1.7859 2.2986 0.74964 0.54021 1.5875 0.8103 2.5135 0.8103 0.84885 0 1.593-0.22048 2.2324-0.66146 0.6394-0.44098 1.13-1.0473 1.4717-1.819 0.35279-0.77171 0.52917-1.6482 0.52917-2.6293 0-1.0583-0.18742-1.9624-0.56225-2.712-0.37482-0.74966-0.8764-1.3064-1.5048-1.6702-0.62837-0.37483-1.3284-0.56224-2.1001-0.56224-0.94809 0-1.6261 0.11573-2.034 0.34725-0.40791 0.23153-0.99772 0.63942-1.7694 1.2237-0.76066 0.57327-1.3891 0.8599-1.8851 0.8599-0.5402 0-1.0197-0.19292-1.4387-0.57878-0.41891-0.39688-0.62839-0.84336-0.62839-1.3395 0-0.0551 0.0607-0.42995 0.18189-1.1245l1.3891-7.921c0.15433-0.9481 0.44097-1.6371 0.85988-2.0671 0.41892-0.42995 1.1024-0.64493 2.0505-0.64493z" style="paint-order:normal"/>
   <path d="m-352.85-454.54a40 40 0 0 0-15.377 3.7181l3.1776 6.814a32.5 32.5 0 0 1 22.134-1.9348l1.9461-7.2636a40 40 0 0 0-9.0542-1.3007l-1.2986 4.5558-1.3074-4.5863a40 40 0 0 0-0.22013-3e-3z" style="paint-order:normal"/>
   <path d="m-354.31-462.54a17.276 10.687 0 0 1 6 0l-3 10.525z" style="paint-order:normal"/>
  </g>
 </g>
</svg>
